<svg id="audi" xmlns="http://www.w3.org/2000/svg" viewBox="0 0 30.58 10.86"><title>audi</title><path d="M24.9.18a5.17,5.17,0,0,0-3.26,1.09A5.28,5.28,0,0,0,18.53.19a5.17,5.17,0,0,0-3.26,1.09,5.24,5.24,0,0,0-6.36,0A5.15,5.15,0,0,0,5.82.21a5.23,5.23,0,1,0-.14,10.46A5.17,5.17,0,0,0,8.93,9.59a5.22,5.22,0,0,0,6.36,0,5.15,5.15,0,0,0,3.11,1.08,5.22,5.22,0,0,0,3.26-1.08,5.24,5.24,0,0,0,8.42-4.08A5.28,5.28,0,0,0,24.9.18m-.13,9.88A4.64,4.64,0,0,1,21.65,8.8a4.66,4.66,0,0,1-3.25,1.27,4.56,4.56,0,0,1-3.11-1.26A4.74,4.74,0,0,1,12,10.08,4.67,4.67,0,0,1,8.92,8.83a4.92,4.92,0,0,1-.46.37,4.63,4.63,0,0,1-7-2A3,3,0,0,1,1,7.15,5,5,0,0,1,.7,5.37a5.07,5.07,0,0,1,4.87-5A3,3,0,0,1,5.79.8h0A4.67,4.67,0,0,1,9,2.13l0-.65a5.06,5.06,0,0,1,3-1.09,2.18,2.18,0,0,1,.24.41,4.78,4.78,0,0,1,3.18,1.32l0-.62a4.92,4.92,0,0,1,3-1.11,2.87,2.87,0,0,1,.22.4h0a4.86,4.86,0,0,1,3.19,1.35l0-.66a5.07,5.07,0,0,1,3-1.11,3.45,3.45,0,0,0,.24.41,4.5,4.5,0,0,1,4.58,4.7,4.58,4.58,0,0,1-4.7,4.58"/><path d="M7.34,7.15a5,5,0,0,1,.78-4.83l.68,0A4.38,4.38,0,0,0,1.37,5.38,4.39,4.39,0,0,0,4.79,9.71c.06-.09.14-.18.21-.27a5.38,5.38,0,0,0,.69.07,4,4,0,0,0,2.49-.82h.61a4.7,4.7,0,0,1-1-1.47,2.18,2.18,0,0,1-.48-.08M5.7,9.3a3.86,3.86,0,1,1,2.23-7,5.24,5.24,0,0,0,0,6.35A4.06,4.06,0,0,1,5.7,9.3"/><path d="M9.62,4.19a.75.75,0,0,1,.23-.33,3.78,3.78,0,0,0-.92-1.43A4.47,4.47,0,0,0,7.72,5.38a4.46,4.46,0,0,0,.87,2.68,3.19,3.19,0,0,0,.35.41l0-.56A3.94,3.94,0,0,0,9.82,5.5a4.33,4.33,0,0,0-.2-1.31m-.7,3.44a3.86,3.86,0,0,1-.69-2.24,3.92,3.92,0,0,1,.69-2.14A3.87,3.87,0,0,1,9.61,5.5a3.76,3.76,0,0,1-.69,2.13m7-3.45a.73.73,0,0,1,.24-.33,4,4,0,0,0-.91-1.42,4.28,4.28,0,0,0-1.19,2.94A4.36,4.36,0,0,0,15.3,8.45V7.93a4.65,4.65,0,0,0,.84-2.44A3.86,3.86,0,0,0,16,4.18M15.28,7.6a3.84,3.84,0,0,1,0-4.33A3.85,3.85,0,0,1,16,5.49a3.91,3.91,0,0,1-.67,2.11"/><path d="M20.08,7.13a5,5,0,0,1,.79-4.84h.66a4.45,4.45,0,0,0-3-1.25,4.38,4.38,0,0,0-3.07,1.2,4.59,4.59,0,0,1,1.27,3.25,4.69,4.69,0,0,1-1.25,3.12,4.44,4.44,0,0,0,2,1.08l.22-.28a5.2,5.2,0,0,0,.69.07A4.33,4.33,0,0,0,21,8.65h.56a4.76,4.76,0,0,1-.95-1.43,2.09,2.09,0,0,1-.49-.08M18.41,9.28a3.8,3.8,0,0,1-2.15-.69,5.22,5.22,0,0,0,0-6.32,3.83,3.83,0,0,1,4.4,0,5.29,5.29,0,0,0-1.06,3.09,5.17,5.17,0,0,0,1.07,3.24,4,4,0,0,1-2.25.69M28.93,3.84a4.51,4.51,0,0,0-4-2.79,4.37,4.37,0,0,0-3.07,1.2,4.61,4.61,0,0,1,0,6.37,4.34,4.34,0,0,0,2,1.07l.22-.28a3.84,3.84,0,0,0,.69.07,4.07,4.07,0,0,0,4.12-4,4.33,4.33,0,0,0-.2-1.31.73.73,0,0,1,.24-.33M24.78,9.27a3.86,3.86,0,0,1-2.14-.68,5.21,5.21,0,0,0,0-6.33,3.83,3.83,0,0,1,2.26-.7,3.88,3.88,0,0,1,3.81,3.91,3.89,3.89,0,0,1-3.93,3.8"/><path d="M22.33,4.18a.82.82,0,0,1,.24-.33,3.65,3.65,0,0,0-.93-1.42,4.37,4.37,0,0,0,.05,6.05V7.94a3.82,3.82,0,0,0,.83-2.45,4.33,4.33,0,0,0-.2-1.31M21.65,7.6A3.74,3.74,0,0,1,21,5.37a3.83,3.83,0,0,1,.67-2.11,3.8,3.8,0,0,1,.68,2.23,4,4,0,0,1-.68,2.11m-7.94-.46a5.28,5.28,0,0,1-.3-1.78A5,5,0,0,1,14.5,2.31h.63a4.32,4.32,0,0,0-3-1.23,4.24,4.24,0,0,0-3,1.18A4.55,4.55,0,0,1,10.39,5.5,4.63,4.63,0,0,1,9.11,8.63a4.5,4.5,0,0,0,2,1.07l.22-.28a4,4,0,0,0,3.2-.76h.59a4.51,4.51,0,0,1-1-1.44,2.18,2.18,0,0,1-.48-.08M12,9.29a3.82,3.82,0,0,1-2.13-.67,5.26,5.26,0,0,0,0-6.36,3.86,3.86,0,0,1,4.39,0,5.22,5.22,0,0,0,0,6.32,4.18,4.18,0,0,1-2.27.7"/></svg>