<svg id="Слой_1" data-name="Слой 1" xmlns="http://www.w3.org/2000/svg" viewBox="0 0 39 16"><title>corvette</title><polygon points="7.29 3.72 5.07 3.57 5.99 5.1 8.12 5.21 7.29 3.72"/><polygon points="11.29 5.29 12.12 6.85 14.98 7.15 14.21 5.58 11.29 5.29"/><path d="M17,4.89h0l-.13-.23a1.56,1.56,0,0,0-.16-.2,1.93,1.93,0,0,0-1.16-.58L7.46,3,7.08,2.3a.5.5,0,0,0-.2-.21A1.52,1.52,0,0,0,6.53,2L2,1.5H2c-.15,0-.25,0-.32,0s-.11.21,0,.46L4.65,6.6a.5.5,0,0,0,.28.22,1.16,1.16,0,0,0,.31.07l4.25.36.55,1h0l.05.08.06.07a.72.72,0,0,0,.42.22l6,.62h0l.13,0,.14,0a.84.84,0,0,1,.52.43l.87,2,.88-2ZM7,6.72,6,5.1,4,5,3,3.44l2.06.13L4.16,2.06l2.33.26a.74.74,0,0,1,.25.05.23.23,0,0,1,.07.07l.71,1.29.83,1.49.94,1.7Zm8,.43.83,1.68L13,8.54l-.88-1.69L9.47,6.58,8.59,5l2.71.27-.88-1.67,3,.34.8,1.62,2.9.3.69,1.57Z"/><path d="M33.37,5.1s.84-1.49,1-1.7a1.19,1.19,0,0,0,.07-.87c-.09,0-.64.74-.76.94s-.46,1.63-.46,1.63Z"/><path d="M32.42,4.36a3.16,3.16,0,0,1,.44-.14c.18-.06,0,.88,0,.88h.18c.33-1,.14-1.36.14-1.38s-.8.64-.8.64"/><path d="M33.45,5.1h.23s1.11-1.62,1.41-.91c0,0,0-.63-.25-.63S34.13,4,33.45,5.1"/><polygon points="32.73 5.44 33.6 5.44 33.65 5.21 32.8 5.21 32.73 5.44"/><polygon points="32.87 5.97 33.3 5.52 32.92 5.52 32.87 5.97"/><path d="M37.77,1.43a.53.53,0,0,0-.35,0l-4.53.53a1.09,1.09,0,0,0-.36.09.53.53,0,0,0-.21.21L32,2.9l-8.09.94a2,2,0,0,0-1.18.59,1.16,1.16,0,0,0-.16.21,1.71,1.71,0,0,0-.13.23L19,12.68a1.11,1.11,0,0,0-.09.62l0,.12a.61.61,0,0,0,0,.12l.41.84a.47.47,0,0,0,.12.15.3.3,0,0,0,.19.07h0a.45.45,0,0,0,.23-.11,1.19,1.19,0,0,0,.23-.38l1.9-4.4a.85.85,0,0,1,.5-.41l.13,0,.14,0,6-.65a.73.73,0,0,0,.45-.23l.06-.07h0l0-.06.55-1,4.24-.38a1.41,1.41,0,0,0,.31-.07.58.58,0,0,0,.3-.23l2.91-4.64c.15-.23.22-.38,0-.49M29.12,8l0,0h0v0l0,0a.45.45,0,0,1-.21.12l-6,.64-.18,0-.18,0a1.21,1.21,0,0,0-.71.61L19.87,14a.87.87,0,0,1-.14.25l-.41-.82h0l0-.07a.15.15,0,0,1,0-.07.83.83,0,0,1,0-.41L22.73,5a1.4,1.4,0,0,1,.09-.17A1.83,1.83,0,0,1,23,4.68a1.6,1.6,0,0,1,.95-.47l7.83-.91-.5.91ZM34.5,6.37a.15.15,0,0,1-.11.07.65.65,0,0,1-.22,0l-4,.35L31.6,4.32l.81-1.47h0l.24-.44a.11.11,0,0,1,.06-.06.66.66,0,0,1,.23-.05l4.45-.52Z"/><polygon points="27.39 5.13 25.6 5.25 25.36 5.84 23.88 5.95 23.1 6.92 25.01 6.73 24.82 7.17 26.66 7.05 26.86 6.54 28.28 6.41 29.09 5.45 27.23 5.63 27.39 5.13"/><path d="M38.83.7,38.69.62l-.13,0h-.45L32.8,1.2h-.08l-.15,0-.15,0-.07,0-.08,0-.08,0-.09,0L32,1.48l-.08.06-.07.07-.07.07-.05.07,0,.07-.22.4-7.73.89-.1,0h-.12l-.11,0-.11,0-.11,0-.11,0-.11,0-.1.06-.1.05-.11.06-.09.06-.1.07-.09.07-.09.07-.09.08-.08.09,0,0L22,4.11l-.11.15-.1.18L19.71,9.19l-2-4.61v0l-.1-.17-.1-.16L17.35,4l-.18-.19-.08-.08L17,3.7l-.09-.07-.1-.07-.1-.06-.1-.06-.1,0-.1-.05-.11,0-.11,0-.11,0-.11,0-.11,0-.12,0L7.91,2.26l-.2-.34-.07-.13,0-.07-.07-.06-.07-.07-.08-.07-.08-.06-.09,0-.08,0L7,1.35,7,1.33l-.08,0-.15,0L1.4.67l-.24,0H.83L.7.69.56.77.44.92l0,.18v.15l0,.12,0,.09.05.09,0,.09L4,7l.07.09.07.09.09.08.09.07.08.06.09,0,.09,0,.08,0,.07,0,.14,0,.12,0L9,8l.36.64,0,0,.09.14.2.2.09.08.1.07L10,9.2l.11.06.12,0,.14,0,.12,0,6,.62h0v0h0v0h0v0h0l0,0v0h0l.07,0,1.64,3.75.46.91.11.23.16.28.1.17.05.08.06.06.06.07.06.07.08.06.09,0,.11,0h.24l.11,0,.1,0,.08-.06.07-.07.06-.06.06-.08,0-.07.05-.09.1-.18.11-.21L22.77,10l.1,0v0l0,0h0v0l0,0h0v0l0,0h0v0l6-.64.12,0,.14,0,.12,0,.12-.06.1-.06.1-.07.1-.08.07-.07,0,0L30,8.68l.42-.74,3.86-.35h0l.18,0,.13,0,.15,0,.08,0,.08,0,.09,0,.09-.07.09-.06.08-.08.08-.09L35.43,7l3.26-5.21.06-.1.11-.19,0-.09,0-.09,0-.11V1l0-.17ZM18.27,12.5l0,.11L17,9.85v0l0-.06L16.9,9.7l-.07,0L16.7,9.6l-6.2-.66-.08,0-.09,0-.09,0-.08,0-.08-.05-.07,0-.07-.05-.06-.06,0,0-.19-.27-.42-.75L5.18,7.22H5.09l-.15,0-.1,0-.11,0-.06,0-.06,0L4.54,7l0,0-.06-.06,0-.06,0,0L1.06,1.6C.9,1.35.8,1.18.83,1.11s.08-.05.19-.05l.34,0,5.18.59h.13l.12,0,.11,0,.11,0,0,0,.06,0,0,0,0,0,0,0,0,.05,0,0,.32.58,7.94.89h.09l.1,0,.09,0,.1,0,.09,0,.09,0,.09,0,.09,0,.09,0,.08,0,.08.05.08.06.08.06.08.06.07.07.07.07.05.06.12.15.1.17,2.26,5.11L18.32,12.4Zm20.06-11L35.07,6.74l0,.06-.05,0,0,.06-.06,0-.06,0-.06,0-.06,0-.06,0-.11,0-.15,0-4.19.38h0l-.46.83-.07.11-.15.17-.07,0-.07.05-.08,0-.08,0-.08,0-.1,0-.08,0-6,.63h0l-.22,0-.08,0-.08,0-.06.05,0,0-1.93,4.44c-.32.76-.54,1.18-.73,1.18s-.35-.31-.63-.89l-.42-.84v0l-.07-.18,0-.24v-.3l0-.15,0-.14,3.44-7.9.05-.12.1-.17.12-.15.14-.16.07-.07L22.67,4,22.75,4l.08-.06.08,0L23,3.8l.09,0,.09,0,.09,0,.09,0,.09,0,.09,0,.1,0,.09,0,8-.92h0l.29-.54L32.1,2l0,0,0,0,0,0,.05,0,.06,0,.05,0,.11-.05.11,0,.12,0L38,1l.34,0c.11,0,.17,0,.18.05s-.06.23-.22.49"/></svg>