<svg id="Capa_1" data-name="Capa 1" xmlns="http://www.w3.org/2000/svg" viewBox="0 0 548.18 452"><title>credit-card</title><path d="M534.75,21.24A43.94,43.94,0,0,0,502.5,7.82H45.68A44,44,0,0,0,13.42,21.24,44,44,0,0,0,0,53.5V400.67a44,44,0,0,0,13.42,32.27,44,44,0,0,0,32.26,13.42H502.5a45.84,45.84,0,0,0,45.68-45.69V53.5A44,44,0,0,0,534.75,21.24ZM511.63,400.68a9.24,9.24,0,0,1-9.13,9.13H45.68a9.26,9.26,0,0,1-9.13-9.14V227.09H511.63V400.68Zm0-283.23H36.54V53.5a9.27,9.27,0,0,1,9.14-9.14H502.49a9.25,9.25,0,0,1,9.14,9.14v64Z"/><rect x="73.09" y="336.72" width="73.09" height="36.55"/><rect x="182.73" y="336.72" width="109.63" height="36.55"/></svg>