<svg id="Capa_1" data-name="Capa 1" xmlns="http://www.w3.org/2000/svg" viewBox="0 0 452 475.1"><title>like</title><path d="M431.83,265.53a82.53,82.53,0,0,0,14-46.54q0-29.4-21.69-51.11t-51.4-21.7H322.48q13.71-28.26,13.71-54.81,0-33.42-10-53.11a62.79,62.79,0,0,0-29.13-29Q277.93,0,254,0q-14.57,0-25.7,10.57-12.27,12-17.7,30.83t-8.7,36.12q-3.29,17.27-10.14,24.41-14,15.13-30.55,36.55-28.83,37.4-39.11,44.25H43.83A35.25,35.25,0,0,0,18,193.44,35.21,35.21,0,0,0,7.28,219.28V402A35.21,35.21,0,0,0,18,427.84a35.21,35.21,0,0,0,25.84,10.71h82.22q6.29,0,39.4,11.42,35.12,12.28,61.81,18.7a230.09,230.09,0,0,0,54.11,6.43H318.2q40.24,0,64.8-23t24.27-62.67q17.13-22,17.13-50.82a87,87,0,0,0-.85-12.28,82,82,0,0,0,10.85-41.11A74.68,74.68,0,0,0,431.83,265.53ZM75,396.58a17.92,17.92,0,0,1-25.7,0A18.27,18.27,0,0,1,62.1,365.46,18.17,18.17,0,0,1,75,396.58ZM403.14,242.42q-6.13,13.13-15.27,13.41,4.28,4.86,7.14,13.57a51.29,51.29,0,0,1,2.84,15.84q0,19.69-15.12,34a39.49,39.49,0,0,1,5.14,19.7,48,48,0,0,1-5,21q-5,10.41-13.56,15a96.59,96.59,0,0,1,1.43,16q0,47.68-54.83,47.68H281.38q-37.41,0-97.65-20.84-1.42-.57-8.28-3l-10.14-3.56q-3.28-1.15-10-3.29t-10.85-3.14q-4.14-1-9.42-1.85a56.57,56.57,0,0,0-9-.86h-9.14V219.29h9.14a24.53,24.53,0,0,0,10.13-2.57A48.65,48.65,0,0,0,147.61,209q5.87-5.14,11-10.14A164.51,164.51,0,0,0,170,186.31q6.27-7.58,9.85-12.13t9-11.71q5.43-7.14,6.57-8.57,15.69-19.41,22-26,11.7-12.27,17-31.26t8.7-35.83Q246.53,44,254,36.56q27.41,0,36.54,13.42t9.13,41.4q0,16.83-13.71,45.82t-13.69,45.54H372.73q14.29,0,25.41,11t11.15,25.55Q409.28,229.27,403.14,242.42Z"/></svg>