<svg id="Слой_1" data-name="Слой 1" xmlns="http://www.w3.org/2000/svg" viewBox="0 0 16 16"><title>pegeot</title><path d="M1,3.51a1.11,1.11,0,0,1,.28,0h0A.85.85,0,0,1,2,3.93L1.89,4l-.2.15a1,1,0,0,0,.41.12,4.73,4.73,0,0,0,.54,0,1.15,1.15,0,0,0,.55-.1s.23.32.51.67a9.74,9.74,0,0,0,.83,1,5.15,5.15,0,0,1-1.12.12L2,6.09a.79.79,0,0,0-.71.51,2.57,2.57,0,0,0-.14.93l.2-.06.11.19a.75.75,0,0,0,.48.44c.15-.37.64-.41.81-.41h.06v.42c1,0,1-.69,1-.69l1.85,0L6.16,8l.66.81a15.94,15.94,0,0,0-2.35,3.56.59.59,0,0,1-.35,1H4.06c-.32,0-.67-.23-1.07-.23l-.22,0c-.64.14-.51.65-1,1.33a1.42,1.42,0,0,1,.33.11,2.82,2.82,0,0,1,1.05.74,1.78,1.78,0,0,1,.95-.21,6.25,6.25,0,0,1,1.7.29h0c.1,0,.14-.2.06-.37a.93.93,0,0,1,0-.78,24.06,24.06,0,0,1,3-3.09l0,0,.78.57a17.17,17.17,0,0,0,1.47.95l.21,0a1.06,1.06,0,0,1,.24,0l.12,0h0l.1,0,.07.05h0a.66.66,0,0,1,.2.49.34.34,0,0,1,0,.15.53.53,0,0,1-.08.15l0,0a.39.39,0,0,1-.1.08l0,0-.13.05h-.2a1.5,1.5,0,0,0-1.05.07c-.42.23-.24,1-.49,1.34a2.42,2.42,0,0,1,.47,0,3.62,3.62,0,0,1,1,.47,3.62,3.62,0,0,1,2.63-.13c.08,0,.13-.21,0-.36a1.41,1.41,0,0,1-.18-.68V11.82h0a1.48,1.48,0,0,1-.57,0,.79.79,0,0,1-.38-.18h0a.52.52,0,0,1-.1-.11h0a1,1,0,0,1-.13-.28c-.1-.29-.37-.89-.55-1.27a2.9,2.9,0,0,0,1.37-.43A1.65,1.65,0,0,0,14,9.18a1.4,1.4,0,0,0,.21-.34,1.77,1.77,0,0,0,.13-1,6.69,6.69,0,0,0-.49-1.62c-.2-.53-.61-1.45-.77-2a4.43,4.43,0,0,1-.21-.9V3.14h0a1.29,1.29,0,0,1,.17-.5.68.68,0,0,1,.61-.39.66.66,0,0,1,.22.06c.24.12.18.18.16.23a1.87,1.87,0,0,0-.2.4A1.75,1.75,0,0,0,13.75,4a2.22,2.22,0,0,0,.58.89,3.57,3.57,0,0,0,.38.32s.42.26.5.2-.31-.85-.29-1.08a1.67,1.67,0,0,1,.1-.43,4.13,4.13,0,0,0,.18-.68,1.57,1.57,0,0,0-.41-1.29A1.35,1.35,0,0,0,14,1.55a1.59,1.59,0,0,0-1.62.72,1.29,1.29,0,0,0-.17.37,1.45,1.45,0,0,0-.09.55,11.43,11.43,0,0,0-1-2,4.61,4.61,0,0,0-.34-.4A1,1,0,0,0,10.49.5,13.67,13.67,0,0,0,8.8.13h0A12.47,12.47,0,0,0,7,.78L6.78,1a8.92,8.92,0,0,0-1.19.28.38.38,0,0,0,0,.48s.14.46.36.46h.6a.77.77,0,0,1,.66-.35.73.73,0,0,1,.71.5l-.09,0a1.05,1.05,0,0,1-.52.12H7.08a1.1,1.1,0,0,0-.26,0,2.16,2.16,0,0,0-.65.1c-.09,0-.14.07-.14.09s.62.16.78.16l.69,0h.35l-.1.11a1.06,1.06,0,0,1-.67.24h-1a1.56,1.56,0,0,0,.24.54h.39c.18,0,.2.06.17.13a1,1,0,0,1,0,.14c0,.06,0,.14-.09.21A2,2,0,0,1,6.32,5c-1-.84-2.26-1.89-3.17-2.56A2.52,2.52,0,0,0,2,2.17a2,2,0,0,0-.72.11.61.61,0,0,0-.32.29l.27.08A.63.63,0,0,0,1,3.51M8.22,1.05l0,0,0,0m3.6,8h-.08c-.31-.44-.85-1.25-1.13-1.67.2-.71.29-.89.45-1.56a1.63,1.63,0,0,0,.4.16h0a0,0,0,0,1,0,0c.07-.3.56-1.72.65-2.17l.17.49c.08.26.18.49.27.72L13,6a7.17,7.17,0,0,1,.5,1.6,1.3,1.3,0,0,1-.12,1,1.14,1.14,0,0,1-.43.35h0L12.79,9h0l-.1,0H12.6l-.17,0H12l-.14,0M7.37,1.28a.79.79,0,0,1,0-.38A5.72,5.72,0,0,1,8.14.82l.08,0a.13.13,0,0,1,0,.22c-.19.08-.53.2-.81.29,0,0,0-.05,0-.07"/></svg>