<svg id="lightning" data-name="Capa 1" xmlns="http://www.w3.org/2000/svg" viewBox="0 0 266 475.08"><title>lightning</title><path d="M258.3,125.06a13.44,13.44,0,0,0-9.71-4.29,15.66,15.66,0,0,0-3.43.57l-113.06,28L180.92,17.13A11.7,11.7,0,0,0,182.35,12a11.3,11.3,0,0,0-3.72-8.42A12.66,12.66,0,0,0,169.5,0H75.86a13,13,0,0,0-8,2.57,12.22,12.22,0,0,0-4.57,6.57L5.91,244.68q-1.43,6.84,3.71,11.14A13.2,13.2,0,0,0,18.47,259a14.68,14.68,0,0,0,3.42-.28l115.92-28.83L81.56,460.53a10.82,10.82,0,0,0,1.29,8.56,12.18,12.18,0,0,0,7.28,5.43,25,25,0,0,0,4,.56q8.28,0,12-7.13L260.29,137.62Q263.44,130.77,258.3,125.06Z"/></svg>