<svg id="mail" data-name="Capa 1" xmlns="http://www.w3.org/2000/svg" viewBox="0 0 27.86 27.86"><defs><style>.cls-1{fill:#010002;}</style></defs><title>mail</title><path class="cls-1" d="M2.2,5.33l10,8a2.54,2.54,0,0,0,1.69.49,2.56,2.56,0,0,0,1.69-.49l10-7.95c.81-.63.62-1.15-.4-1.15H2.6C1.58,4.18,1.4,4.7,2.2,5.33Z"/><path class="cls-1" d="M26.38,7.43l-11,8.32a2.38,2.38,0,0,1-1.48.45,2.38,2.38,0,0,1-1.48-.45l-11-8.32C.67,6.81,0,7.14,0,8.16V21.82a1.87,1.87,0,0,0,1.86,1.86H26a1.87,1.87,0,0,0,1.86-1.86V8.16C27.86,7.14,27.19,6.81,26.38,7.43Z"/></svg>