<svg id="cart" xmlns="http://www.w3.org/2000/svg" viewBox="0 0 475.08 475.08"><title>shopping_cart</title><path d="M365.45,402a36.57,36.57,0,1,0,10.71-25.84A35.21,35.21,0,0,0,365.45,402Z"/><path d="M469.66,78.51a17.56,17.56,0,0,0-12.85-5.43H113.92c-.2-1.33-.62-3.75-1.29-7.27s-1.19-6.33-1.57-8.43a49.75,49.75,0,0,0-2.14-7.56,22.65,22.65,0,0,0-3.71-7A18.25,18.25,0,0,0,99.5,38.4a17.35,17.35,0,0,0-8.14-1.86H18.28A17.53,17.53,0,0,0,5.43,42a17.91,17.91,0,0,0,0,25.69,17.56,17.56,0,0,0,12.85,5.43H76.51l50.53,235q-.56,1.14-5.85,10.85t-8.42,17c-2.09,4.86-3.14,8.61-3.14,11.28a18.53,18.53,0,0,0,18.28,18.27H420.26a18.28,18.28,0,0,0,0-36.55H157.6q6.85-13.71,6.85-18.27a30.72,30.72,0,0,0-.72-6.28q-.71-3.42-1.71-7.57c-.67-2.75-1.09-4.8-1.28-6.13l298.08-34.83a17.74,17.74,0,0,0,11.7-6.14,18,18,0,0,0,4.56-12.13V91.36A17.57,17.57,0,0,0,469.66,78.51Z"/><path d="M109.63,402a36.57,36.57,0,0,0,36.55,36.54,36.55,36.55,0,1,0-25.84-62.38A35.21,35.21,0,0,0,109.63,402Z"/></svg>