<?xml version="1.0" encoding="utf-8"?>
<!-- Generator: Adobe Illustrator 23.0.0, SVG Export Plug-In . SVG Version: 6.00 Build 0)  -->
<svg version="1.1" id="vk" xmlns="http://www.w3.org/2000/svg" xmlns:xlink="http://www.w3.org/1999/xlink" x="0px" y="0px"
	 viewBox="0 0 24 14.5" style="enable-background:new 0 0 24 14.5;" xml:space="preserve">
<title>vk</title>
<path d="M13.2,14.3c0.4,0,0.8-0.3,0.9-0.7c0-0.1,0-0.1,0-0.2c0-1.9,0.7-2.9,2.1-1.6c1.5,1.5,1.8,2.5,3.6,2.5h3.2
	c0.8,0,1.1-0.3,1.1-0.7c0-0.9-1.4-2.4-2.6-3.5c-1.7-1.6-1.8-1.6-0.3-3.5c1.8-2.4,4.2-5.4,2.1-5.4h-4c-0.8,0-0.8,0.4-1.1,1.1
	c-1,2.4-2.9,5.4-3.6,4.9S14,4.9,14.1,2c0-0.8,0-1.3-1.1-1.5c-0.6-0.1-1.2-0.2-1.8-0.2c-2.3,0-3.8,1-3,1.1c1.6,0.3,1.4,3.7,1.1,5.2
	c-0.6,2.6-3-2-4-4.3C5,1.7,4.9,1.3,4,1.3H0.8C0.3,1.3,0,1.5,0,1.8c0,0.6,3,6.7,5.8,9.8S11.3,14.3,13.2,14.3z"/>
</svg>
