<svg id="car" data-name="Слой 1" xmlns="http://www.w3.org/2000/svg" viewBox="0 0 962 398.1"><title>car</title><path d="M952,160.1v6c-4.21,2.64-7.21,5.82-7.91,11.25-2.08,16.43-2.36,33.36-12.43,47.79,2.84,2,5.19,3.55,7.45,5.23,5.44,4,7,9.62,5.62,16-1.56,7.41-5.67,13-13.42,14.44-6.45,1.23-10.42,4.67-13.79,10.25-2.37,3.92-6.68,6.72-10.32,9.8-1.45,1.23-3.41,1.86-5.33,2.86,1,2.2,1.78,4,2.55,5.82,4,9.3,2.49,14-6,19.34a136.45,136.45,0,0,1-51.31,19.89c-2.13.35-4.25.72-6.38,1.08,17.85,3.26,36.06,1.13,53.61,7.21A35.61,35.61,0,0,1,883.12,343C825.78,359,768.48,375.18,711,390.57c-17.54,4.7-35,2.53-51-7.27-2-1.25-4.68-1.65-7.11-2.07-13.28-2.3-26.64-4.22-39.86-6.8A50.25,50.25,0,0,0,586.12,376c-15.43,5.32-31.22,9.42-47.65,10.38-24,1.4-47.27-1.15-68.85-12.55-11.26-6-21.89-13.11-28.85-24.05a18.21,18.21,0,0,0-12.95-8.88q-130.38-25.17-260.76-50.42c-6.94-1.33-14.54-3.38-21.09-1.87-16.11,3.7-32,3.28-48.15,1.69a28.49,28.49,0,0,1-16.63-7.23,49.74,49.74,0,0,1-15.94-27.67c-2.48-12.36-3.62-25-5.19-37.51-.49-3.86-.57-7.88-4.58-9.88C39.37,200,29.42,186,20.64,171.17,12.6,157.54,10.9,143,16.8,128c2.56-6.5,5.46-12.86,7.89-19.4,1.45-3.89,4-5.82,7.94-6.6,14.52-2.88,28.94-6.42,43.56-8.71C88.31,91.4,98,86.46,107.1,78c32.32-30,70-50.52,113.1-60.68,36.58-8.61,74-9.82,111.15-10.9A938.65,938.65,0,0,1,476.9,14c18.7,2.37,35.87,7.69,51,19.61A678.79,678.79,0,0,1,597,95.66c3.3,3.42,7,5.5,11.81,5.57,3,0,6,.5,9,.76,45.12,4,90.29,7.41,135.33,12.09a1078.24,1078.24,0,0,1,158.48,29C925.79,146.81,940.59,149.5,952,160.1ZM653.46,199.69c5.84-9.63,11.41-18.87,17-28.07,3.49-5.72,2.95-9.12-3.2-12.16a144.28,144.28,0,0,0-22-9.21c-30.72-9.27-62.34-14-94.19-16.92-48.58-4.46-97.15-9.39-145.83-12.15-65.81-3.73-131.73-5.52-197.6-8.3-12.94-.55-25.94-1.21-38.76-3-13.39-1.85-22.82-11.12-33.12-20,1.76-.63,2.65-1,3.57-1.27,10.42-2.6,12.92-5,14.15-15.78,1.33-11.64,7.35-19.72,17.28-25.27a70.87,70.87,0,0,1,7.17-3.5c33.42-14,68.72-17.92,104.48-19.1,6.46-.21,11.6,2.78,15.15,8.16a82.3,82.3,0,0,1,4.55,8.3q16,31.34,31.93,62.71c1.55,3,3.71,4.22,7.19,4.1,32.28-1.08,64.56-2.17,96.85-3,48.27-1.19,96.56-2.15,144.83-3.19,2.32,0,4.64,0,7,0-.41-2-.91-2.62-1.51-3.16Q552.59,67,516.82,35a56.61,56.61,0,0,0-28.47-13.63,679.14,679.14,0,0,0-93.8-10c-42.16-1.41-84.22.8-126.3,3.54-50.17,3.27-95.12,19.88-134.73,50.79-9.4,7.34-18.38,15.2-28.46,23.58l23.8,4.24c-.71.67-1,1.2-1.42,1.28a8.87,8.87,0,0,1-2.47,0C95.15,92,66.21,97.26,37.59,104.66c-3.35.86-6.7,4.27-8.67,7.37-3.65,5.72-6.27,12.09-9.33,18.18a18,18,0,0,0-.73,15.65c1.12-7.45,6.35-7.93,12-8.17,10.83-.45,21.64-1.18,32.46-1.79v-.73l-41.86-2.75c2.78-5.28,5.55-9.65,7.47-14.36,3.34-8.18,9.08-10.63,17.71-10.25,25.78,1.14,51.59,1.56,77.39,2.33,1.78,0,4.15,0,5.22,1.08,7.64,7.49,15,15.25,22.85,23.33l-22.26,8.23c32.81-.39,66.09-1.13,99.36-1.08,28.31,0,56.65.21,84.91,1.67,51.53,2.66,103.07,5.67,154.51,9.74,54.93,4.34,109.76,10.07,164.63,15.25,7.42.7,14.81,1.73,22.57,2.65A41.73,41.73,0,0,0,653.46,199.69ZM538,254.54c-5.74-4.7-11.06-9.22-16.57-13.5-3.06-2.37-3.4-5.07-2-8.36,1.86-4.45,3.57-9,5.58-13.34,1.41-3.08.66-4.94-2.32-6.43-4.61-2.31-9.06-4.92-13.64-7.3-13.94-7.24-26-5.68-37.68,4.83-35.53,31.9-39.4,91.78-8.27,128.09,26.19,30.56,68,29.47,92.51-2.45,11.64-15.18,16.11-32.91,18.62-51.47,1.46-10.72-.88-20.18-7.34-28.62-4.13-5.41-8.69-10.51-13.23-16C548.36,244.89,543.38,249.52,538,254.54Zm-32.14-144.1.1.35c3,.38,5.91.83,8.88,1.12,55.52,5.41,111.09,10.23,166.52,16.39,37.77,4.19,75,11.89,110.53,25.88,4,1.58,8.39,4.18,10.73,7.59,3.07,4.48,6.48,5.41,11.28,5.2,35.59-1.55,71.2-3,106.79-4.48,5.31-.23,10.6-.8,15.9-1.22.18-.77.37-1.55.56-2.33-3.54-1.75-6.9-4.16-10.64-5.17a1118.6,1118.6,0,0,0-145.87-28.59c-30-3.94-60.17-7.3-90.31-10.44-34.93-3.63-69.85-7.87-105.09-6.8Q545.52,109.14,505.83,110.44ZM406,299.08c-.9-.13-2.34-.27-3.77-.55-17.8-3.48-35.63-6.79-53.39-10.5q-94.3-19.69-188.57-39.56c-12.36-2.58-19.39-9.94-23.56-21.73-6.37-18-13.54-35.76-20.94-53.38-5.71-13.61-16.83-20.71-31.21-22.64-9.44-1.28-17.16,2.12-22.1,10.38-6.6,11-6.76,22.89-3.79,35a17.61,17.61,0,0,0,.83-4.34c.56-5.45.74-11,1.75-16.36,1.9-10.18,9.19-16.2,18.46-15.2,7.46.8,14.6,3.38,19.27,9.43,6.67,8.66,13.35,17.49,18.57,27,5.71,10.47,10,21.75,14.47,32.86,5,12.4,13.8,20.12,26.7,23.27,14.22,3.46,28.41,7.12,42.71,10.25q93.6,20.54,187.27,40.8c8.2,1.79,16.43,3.41,25.16,5.21-2.78-18.79-3.36-36.84.15-54.85,4-20.46,12.33-38.6,30.27-50.4,23.8-15.65,49.05-15.49,74.21-3.69,23.41,11,41,29.16,55.41,50,10.59,15.28,19.67,31.64,28.79,47.87,6.61,11.75,15.44,18.72,29.26,20.46,9.53,1.21,19.71,1.72,28,8,6.75,5.16,13.7,10.06,20.35,15.34,8.39,6.68,17.64,9.55,28.39,8.14,21.62-2.83,43.29-5.27,64.92-8.05,7.12-.92,14.18-2.4,21.26-3.62a2.75,2.75,0,0,0-2.58-1c-25.53,2.43-51,4.94-76.58,7.28-20,1.83-35.48-7-50.33-21.43h30.51c-22.55-4-45.08-7.38-67.61-10.65A21,21,0,0,1,612,301.4q-7.68-14-15-28.17c-9.18-17.78-18.93-35.18-31.49-50.86-18.36-22.91-40.81-38.77-70.73-42.85-29.58-4-57.48,8.51-73.1,33.9-10.2,16.56-14.89,34.79-15.57,54.06C405.7,277.76,406,288.07,406,299.08ZM757.81,174.55c.29-.45.58-.91.86-1.37-2-2.42-3.76-5.21-6.15-7.21-15-12.55-33.18-18.1-51.58-22.84-50.64-13-102.51-18.11-154.37-22.89-31.14-2.88-62.39-4.73-93.63-6.35-16.07-.83-32.23-.15-48.34-.15a87.78,87.78,0,0,0,10.32,1.35c30,2.22,60.14,3.82,90.12,6.75,32.12,3.14,64.14,7.34,96.16,11.43,22.34,2.85,44.26,7.53,64.86,17.16,9.63,4.51,18.14,9.94,20.33,21.41ZM702.08,245.1c12.36.89,25.92,2,39.5,2.76,6.22.35,10.77-2.53,13.4-8.44,7.83-17.61,15.79-35.17,23.68-52.76.48-1.09.75-2.27,1.29-3.93-3.92.53-7.2.93-10.47,1.43-14.47,2.25-29,4.31-42,11.83-9,5.2-11.87,12.29-8.86,22.31.68,2.28,1.39,4.54,2.25,7.32-4.86-2-8.93-3.89-13.18-5.24s-5.77.26-5.67,4.68C702.19,231.58,702.08,238.1,702.08,245.1Zm50.67,27v-.28c7,0,14,.32,21-.05,45.14-2.44,89.64-9.56,133.81-18.9,9.9-2.09,19.67-4.89,29.33-7.92,5.25-1.64,5.81-5.31,1.71-9a52.76,52.76,0,0,0-9.37-6.57c-4.56-2.54-7-1.18-7.07,4.09,0,4.44-2.19,6.79-6,8.1a62.37,62.37,0,0,1-8.55,2.62c-20.43,3.89-40.79,8.34-61.35,11.28-24.52,3.51-49.16,6.88-73.86,8.12-25.07,1.27-50.27-.34-75.4-.28-27.54.07-54.86-2.51-82.14-5.86a36.05,36.05,0,0,0-11.31.37c-1.54.31-2.62,3-3.91,4.53,1.58,1.23,3,3.26,4.77,3.54,9.84,1.63,19.72,3.66,29.65,4,28.73,1.11,57.49,1.55,86.23,2.12C731.1,272.28,741.93,272.1,752.75,272.1Zm-687-51.18c1.25,7.13,2.45,19.31,5.76,30.88,2.12,7.41,6.62,14.49,11.4,20.67s12.37,5.68,17.27-.29c3.2-3.9,6.4-8.48,7.57-13.25,3.44-14.08,7.31-28.17,5.34-43.05-1.81-13.58-3.43-27.17-10.93-39C92.82,162,81.86,162.59,73.9,178.15,67.84,190,66.48,202.89,65.74,220.92Zm595.17-2.08c.64,3.08,1.6,9,3.13,14.72s4.85,10.37,11.22,11.36c6.16,1,10.53-2.42,13.87-7.09,11.53-16.12,14.29-33.56,7.35-52.29-1.83-4.93-4.9-8.68-10.52-9.48s-10,1.67-13.29,6.12C665.29,192.22,661.13,203.4,660.91,218.84Zm-340-47.7-1.19-.21c-.55,2.64-1.45,5.27-1.61,7.93q-1.89,33.16-3.53,66.33c-.37,7.46-1.21,8.79-8.61,7.81-27.38-3.6-54.71-7.63-82.08-11.34-9.39-1.27-18.84-2-28.27-3.06l-.33,2.39,128.92,23C323,232.13,322,201.64,320.87,171.14Zm609.45.64c0-.56-.07-1.12-.11-1.68-1.66,0-3.32-.07-5,0-37.92,1.72-75.84,3.3-113.75,5.27-13.64.71-23.42,7.85-29.14,20.31s-11.44,25.11-17.1,37.7a58.31,58.31,0,0,0-1.9,5.54,9.59,9.59,0,0,0,3.71-4.27c6.3-11.72,12.45-23.52,19-35.13,4.77-8.53,11.53-14.52,21.88-15.45q50.49-4.53,101-9.27C916,174.13,923.16,172.81,930.32,171.78ZM315.1,95.14l.78-.42c-.66-1.61-1.22-3.28-2-4.83-6.4-12.79-13.17-25.4-19.17-38.36C289.27,39.74,280.16,35.78,267.8,36c-26.29.39-51.94,4.8-77.32,11.22-2.21.55-4.33,1.45-6.48,2.19a6.57,6.57,0,0,0,4.69.64c23.25-4.54,46.77-6.15,70.41-7.19,15-.66,25.87,4.45,33.53,17.68C299.51,72.4,307.56,83.62,315.1,95.14ZM775,250.72c0,.54,0,1.08.08,1.62a29.72,29.72,0,0,0,5.74.66c14.77-1.07,29.59-1.72,44.27-3.56,24.76-3.09,49.39-7.16,74.13-10.39,9-1.18,15.27-4.83,17.95-13.9,1-3.49,2.94-6.7,4.3-10.09a37.18,37.18,0,0,0,1.24-4.72l-1.36-.51a59.57,59.57,0,0,0-4,6c-1.89,3.7-3.52,7.53-5.17,11.34a12.57,12.57,0,0,1-10.64,7.93l-106,13.1Q785.26,249.48,775,250.72Zm15.34,31.78-.87-2.29c-26.18-1.32-52.35.05-78.57,2l68.18,5.17-12.44,22.54,1,.62Zm2.21-114c-1.7-5.38-5.32-7.77-9.63-9.33-13.09-4.74-26.16-9.56-39.35-14-5.39-1.82-11.07-2.81-17.87-4.49a15.86,15.86,0,0,0,1.84,1.54c.91.41,1.84.77,2.77,1.12,15.82,5.88,31,12.75,42.56,25.77,1.17,1.32,3.86,2,5.75,1.85C783,170.51,787.4,169.42,792.55,168.47ZM687.93,316.26a33.81,33.81,0,0,0,22.68-16.66c1-1.66,1.71-5,.86-5.82-1.51-1.49-4.53-2.65-6.55-2.22a34.28,34.28,0,0,0-22.86,16.25C679.36,312.28,681.77,316.12,687.93,316.26Zm103.46-82.7,1.44,1c1-1.67,2.06-3.31,3-5,3.44-6.45,6.82-12.94,10.24-19.41,4-7.47,9.93-11.69,18.58-12.34q28.11-2.12,56.21-4.71c6.27-.58,12.49-1.77,18.73-2.68l-.21-1.41q-17.43.81-34.86,1.63c-14.29.7-28.62,1-42.84,2.4-4.34.44-10.1,2.94-12.21,6.35C802.67,210.28,797.3,222.09,791.39,233.56ZM202.76,212.4,203,211c-1.31-.38-2.61-.85-3.95-1.11-16.65-3.23-33.31-6.36-49.94-9.67-7.69-1.53-11.18-5.44-12.18-13.12-1.06-8.25-2-16.51-3.05-24.76-.4-3.08-.95-6.14-1.43-9.2a4.65,4.65,0,0,0-1.27,3.45q.85,16.69,1.81,33.38c.56,9.65,4.27,13.61,14,15,5.92.88,11.83,1.85,17.77,2.61C177.41,209.29,190.09,210.83,202.76,212.4Zm672.71,53.8c-1.62,2.09-3.15,3.77-4.36,5.66-3.13,4.91-6.09,9.93-9.19,14.85-4.57,7.27-11,11.93-19.5,13.49-3.6.66-7.19,1.39-10.78,2.06-8.09,1.52-16.18,3-24.26,4.52a5.2,5.2,0,0,0,3.91,2.11c14.13.33,28-1.47,41-7.12,14.85-6.45,19.26-20.53,24-34.23C876.32,267.44,876.13,267.27,875.47,266.2Z"/><path d="M578.17,96.93,536.58,98.1q-67.91,1.91-135.8,3.81c-14.15.39-28.3.63-42.45,1.06-4.14.13-6.67-1.24-8.5-5.25-9.91-21.8-20.13-43.47-30.19-65.2-3.39-7.34-2.22-9.19,5.75-9.56,24.28-1.13,48.57-3.33,72.83-3.06,23.92.26,47.81,3,71.72,4.7,2.65.19,5.3.61,8,.68,15.14.42,28.12,6,39.3,16.12q28.89,26.13,57.86,52.17C576,94.4,576.76,95.4,578.17,96.93Zm-68.64-4.26c-.75-2.09-1-4-2-5.35-4.81-6.31-9.14-13.21-14.9-18.53-19.05-17.59-42-29.23-65.09-40.39C416.3,23,404.17,27.07,392.4,26.16c8.47,5.92,17.15,11.08,25.62,16.54C431.65,51.47,444.68,61,454.66,74c4.28,5.61,7.89,11.32,3.39,18.63ZM362.9,27.08c7,4.17,12.72,7.47,18.33,11,11.9,7.42,23.22,15.53,31.67,27,6.44,8.79,10,18,5.25,28.78-.08.18.26.55.53,1.06h3.85c6.66,0,13.32.2,20-.06,8.7-.33,12.31-6.32,8.31-14a43,43,0,0,0-6.93-9.67c-17.49-18.27-39.11-30.79-61-42.83C377.22,25.3,370.73,25.75,362.9,27.08Z"/><path d="M491.55,348.82c-6.5-.47-11.65-3.82-16.14-8-33.65-31.44-37.59-90.13,2.68-123.17,5-4.12,11.07-7,17.22-9.75-24.27,16.92-35.17,40.78-36,69.31C458.51,305.9,468.4,330.37,491.55,348.82Z"/><path d="M505.06,329.66c0-3.66-.11-7.32,0-11,.16-4.41,2.41-6.92,6.92-7.73,12.25-2.21,12.49-2.18,18,8.78,2.29,4.61,4.57,9.23,6.8,13.87,2.58,5.37,1.81,7.14-3.74,9.54-7.4,3.21-15.15,3.45-23,3-3.22-.2-4.92-1.8-5-5-.07-3.82,0-7.64,0-11.47Z"/><path d="M567,273.87c-.57,14.53-1.88,28-7.77,41.33-6.62-5.53-13.13-10.64-19.24-16.18-3-2.76.5-21.6,4.26-23.11,2.36-1,5.19-.77,7.82-1C556.86,274.54,561.63,274.24,567,273.87Z"/><path d="M478.51,322.63c-8.8-11.88-13.21-24.29-12.65-38.32a6.23,6.23,0,0,1,.8-3.27c2.6-3.5,16.65-2.06,18.39,2a135.63,135.63,0,0,1,5.83,15.89,9.2,9.2,0,0,1-.91,6.54C486.55,311.16,482.63,316.54,478.51,322.63Z"/><path d="M496.48,216.14c1.06,9.61,2.32,18.43,2.84,27.29.16,2.71-1.15,5.9-2.73,8.24-2.67,3.94-6.08,7.37-9.51,11.39-4.36-4.65-9-9.33-13.27-14.33a5.78,5.78,0,0,1-.88-5C478,232.49,485.8,223.51,496.48,216.14Z"/><path d="M509.13,291.88c11.86-10.19,9.47-20.73,3-31.62,6.67,1,10.52,7.64,10.25,16.29C522.14,286,518.55,290.72,509.13,291.88Z"/><path d="M511.82,283.07c-2.47-7.13.48-16.46-10.54-17.31,4.22-4.94,7.41-4.82,10.22.46S514.5,276.79,511.82,283.07Z"/><path d="M82.74,207.73c-9.87-15.56-6.11-31.09,8.44-33.49C88.42,185.5,92.19,198.09,82.74,207.73Z"/><path d="M83.13,259.06c.92-4.78,1.45-8.58,2.46-12.24.38-1.36,2-3.41,2.88-3.35,1.54.09,3.88,1.31,4.34,2.6a140.15,140.15,0,0,1,4.9,17.21c.25,1.11-1.65,3.79-2.72,3.89-2.75.25-6.24.32-8.22-1.16S84.08,261,83.13,259.06Z"/><path d="M73.13,242c-.83-12.14-1.59-23.14-2.41-35.13a19.59,19.59,0,0,1,10.35,14.37C82.58,229.18,79.61,235.59,73.13,242Z"/><path d="M108.74,247.23c-8.5-4.61-10.58-9.47-8.39-18.42,1.37-5.61,3.58-7.33,10.42-7.59C110.11,229.75,109.45,238.21,108.74,247.23Z"/><path d="M102.18,184.41c1.73,6.55,4,12.06,4.33,17.69.17,3.05-3,6.29-5,9.92C94.22,202.76,94.41,196.2,102.18,184.41Z"/><path d="M91,232c4.34-6.23,3.44-12.86,1-19.82a13.77,13.77,0,0,1,3.08,16.1c-.76,1.57-2.19,2.82-3.34,4.19A5.31,5.31,0,0,1,91,232Z"/><path d="M693.17,204.8a43.47,43.47,0,0,1-6.75,27.11c-2.38,3.74-5.93,6.52-10.73,6-4.43-.44-6.72-3.65-8.74-8.26,10.92,2.58,15.79-3.93,19.78-11.68C689,213.65,691,209.21,693.17,204.8Z"/></svg>