<svg id="audi" xmlns="http://www.w3.org/2000/svg" viewBox="0 0 30.58 10.86"><path d="M24.9.18c-1.22-.02-2.36.39-3.26 1.09A5.27 5.27 0 0 0 18.53.19c-1.22-.02-2.36.39-3.26 1.09A5.246 5.246 0 0 0 12.16.2C10.95.18 9.82.59 8.91 1.27A5.147 5.147 0 0 0 5.82.21C2.94.17.55 2.49.51 5.37c-.04 2.88 2.28 5.26 5.17 5.3a5.19 5.19 0 0 0 3.25-1.08c.86.66 1.93 1.06 3.1 1.07 1.22.02 2.36-.39 3.26-1.09a5.18 5.18 0 0 0 3.11 1.08c1.22.02 2.36-.39 3.26-1.08.86.66 1.94 1.06 3.11 1.08 2.88.04 5.27-2.28 5.31-5.16.02-2.88-2.3-5.27-5.18-5.31m-.13 9.88c-1.21-.02-2.3-.49-3.12-1.26-.9.81-1.99 1.29-3.25 1.27a4.55 4.55 0 0 1-3.11-1.26c-.87.81-2.06 1.29-3.26 1.27a4.696 4.696 0 0 1-3.11-1.25c-.13.12-.28.24-.46.37-.78.57-1.74.89-2.78.88a4.63 4.63 0 0 1-4.21-2.84c-.17-.02-.33-.05-.47-.09C.8 6.6.69 6 .7 5.37.74 2.67 2.9.49 5.57.39c.07.11.15.25.22.41h.02c1.19.02 2.33.5 3.18 1.33l-.03-.65C9.78.83 10.81.43 11.92.39c.04.06.15.2.24.41 1.17.01 2.36.53 3.18 1.32l-.04-.62C16.12.83 17.16.42 18.28.39c.07.11.15.24.22.4h.02c1.18.02 2.35.55 3.19 1.35l-.04-.66C22.5.82 23.53.41 24.65.37c.04.06.21.41.24.41 2.49.12 4.48 1.61 4.58 4.7.08 2.56-2.15 4.61-4.7 4.58"/><path d="M7.34 7.15c-.2-.56-.31-1.16-.3-1.78.01-1.15.42-2.21 1.08-3.05.27-.01.53-.02.68-.02a4.38 4.38 0 0 0-2.99-1.23 4.377 4.377 0 0 0-4.44 4.31c-.03 2.1 1.44 3.88 3.42 4.33.06-.09.14-.18.21-.27.23.04.46.06.69.07.92.01 1.76-.28 2.49-.82l.61.01c-.41-.42-.74-.92-.97-1.47-.18-.01-.34-.04-.48-.08M5.7 9.3a3.87 3.87 0 0 1-3.81-3.91 3.867 3.867 0 0 1 3.91-3.8c.79.01 1.52.26 2.13.67-.66.87-1.06 1.94-1.07 3.11-.02 1.21.38 2.34 1.07 3.24-.47.31-1.27.7-2.23.69"/><path d="M9.62 4.19c.08-.22.23-.33.23-.33-.14-.51-.55-1.04-.92-1.43-.73.78-1.18 1.81-1.21 2.95-.02.77.28 2 .87 2.68.11.13.2.28.35.41l.02-.56c.55-.67.84-1.53.86-2.41 0-.46-.07-.9-.2-1.31m-.7 3.44c-.44-.64-.7-1.41-.69-2.24.02-.8.27-1.53.69-2.14.44.64.7 1.41.69 2.25-.01.79-.26 1.52-.69 2.13M15.95 4.18c.08-.22.24-.33.24-.33-.12-.43-.56-1.07-.91-1.42a4.31 4.31 0 0 0-1.19 2.94c-.02 1.19.45 2.28 1.21 3.08l.01-.52c.47-.76.82-1.49.84-2.44.01-.45-.06-.89-.2-1.31m-.67 3.42a3.83 3.83 0 0 1 0-4.33c.43.63.68 1.4.67 2.22-.02.78-.26 1.51-.67 2.11"/><path d="M20.08 7.13c-.2-.56-.31-1.15-.3-1.78.01-1.15.42-2.21 1.09-3.06h.66c-.82-.77-1.85-1.23-3-1.25-1.19-.01-2.27.44-3.07 1.2.83.86 1.29 2.04 1.27 3.25a4.673 4.673 0 0 1-1.25 3.12c.56.52 1.25.9 2.03 1.08.07-.09.14-.18.22-.28.22.04.46.06.69.07.99.02 1.83-.35 2.54-.83l.56-.01c-.4-.41-.72-.9-.95-1.43-.2-.01-.35-.04-.49-.08m-1.67 2.15c-.8-.01-1.54-.26-2.15-.69.65-.86 1.05-1.93 1.06-3.09.02-1.21-.38-2.33-1.07-3.23.64-.45 1.42-.71 2.26-.7.79.01 1.53.27 2.14.69a5.26 5.26 0 0 0-1.06 3.09c-.02 1.21.38 2.34 1.07 3.24-.47.31-1.27.71-2.25.69M28.93 3.84c-.35-1.24-2.1-2.79-4.04-2.79-1.18-.02-2.26.44-3.07 1.2.83.87 1.3 2.05 1.28 3.25-.02 1.12-.47 2.32-1.27 3.12.56.52 1.25.9 2.03 1.07.07-.09.14-.18.22-.28.22.04.45.07.69.07 2.24.03 4.09-1.77 4.12-4 0-.46-.07-.9-.2-1.31.08-.22.24-.33.24-.33m-4.15 5.43c-.79-.01-1.53-.26-2.14-.68.66-.86 1.05-1.93 1.07-3.09.02-1.21-.39-2.34-1.07-3.24.64-.45 1.42-.71 2.26-.7 2.12.03 3.83 1.79 3.81 3.91-.05 2.13-1.81 3.83-3.93 3.8"/><path d="M22.33 4.18c.09-.22.24-.33.24-.33-.14-.5-.55-1.04-.93-1.42-.72.77-1.17 1.8-1.19 2.94a4.4 4.4 0 0 0 1.24 3.11l.01-.54c.56-.76.82-1.44.83-2.45 0-.46-.07-.9-.2-1.31m-.68 3.42c-.44-.63-.69-1.41-.67-2.23.01-.78.26-1.51.67-2.11.44.63.69 1.4.68 2.23a3.92 3.92 0 0 1-.68 2.11M13.71 7.14c-.2-.56-.3-1.16-.3-1.78.02-1.15.42-2.21 1.09-3.05l.63-.01c-.83-.77-1.81-1.22-2.98-1.23-1.18-.03-2.25.43-3.04 1.18.83.88 1.3 1.99 1.28 3.25a4.64 4.64 0 0 1-1.28 3.13c.56.52 1.28.9 2.02 1.07.07-.09.14-.18.22-.28.22.04.46.07.69.07.82.01 1.89-.26 2.51-.83h.59c-.4-.41-.73-.9-.95-1.44-.18-.01-.34-.04-.48-.08m-1.67 2.15c-.79-.01-1.52-.25-2.13-.67.66-.86 1.06-1.94 1.07-3.1.02-1.23-.38-2.36-1.07-3.26a3.85 3.85 0 0 1 2.24-.68c.8.01 1.54.27 2.15.69-.65.86-1.05 1.93-1.06 3.09-.01 1.21.38 2.33 1.07 3.23-.48.31-1.29.71-2.27.7"/></svg>