<svg id="bmw" data-name="Слой 1" xmlns="http://www.w3.org/2000/svg" viewBox="0 0 27 26"><title>bmw</title><path d="M13.62.16A12.73,12.73,0,1,0,26.34,12.89,12.74,12.74,0,0,0,13.62.16m0,25.1A12.38,12.38,0,1,1,26,12.89,12.39,12.39,0,0,1,13.62,25.26"/><path d="M6.36,7.89l0,0h0L7.15,7l.28-.34a.41.41,0,0,0,.05-.4A.37.37,0,0,0,7.12,6a.39.39,0,0,0-.31.17l-.33.41-.67.84.35.29.2.16"/><path d="M13.62.73A12.16,12.16,0,1,0,25.77,12.88,12.15,12.15,0,0,0,13.62.73m-2,.76,1.14-.13.83,2.41.82-2.41,1.14.13.13,3.42-.89-.13L14.73,2.5l-.8,2.28H13.3L12.5,2.5l-.09,2.28-.88.13ZM4,7.12,3.71,6.9l0,0,.05-.06.71-.89c.27-.34.55-.68.82-1,.06-.06.11-.13.16-.19a.78.78,0,0,1,.36-.26.83.83,0,0,1,.86.18.79.79,0,0,1,.22.4.77.77,0,0,1,0,.45s0,0,.07,0a.93.93,0,0,1,.91-.1.91.91,0,0,1,.54.73.93.93,0,0,1,0,.37A2,2,0,0,1,8,7c-.28.35-.57.7-.85,1.06l-.71.88,0,.06h0l-.26-.22L5,8,4,7.12m9.64,13.36a7.6,7.6,0,1,1,7.59-7.6,7.6,7.6,0,0,1-7.59,7.6M20.85,9l-.43-.75,1.5-2-2.26,1L19,6.68,21.09,4l.63.59L20.54,6.13l1.89-.87L23,6,21.72,7.61l1.78-.82.44.75Z"/><path d="M6.33,5.72a.39.39,0,0,0-.08-.35.39.39,0,0,0-.43-.1.66.66,0,0,0-.24.23l-.8,1-.06.08.16.12.43.35.42-.53L6.15,6a.84.84,0,0,0,.18-.28"/><path d="M6.4,12.89h7.22V5.67A7.43,7.43,0,0,0,6.4,12.89"/><path d="M13.62,20.1a7.42,7.42,0,0,0,7.21-7.21H13.62Z"/></svg>