<svg id="mercedes" data-name="Слой 1" xmlns="http://www.w3.org/2000/svg" viewBox="0 0 27 26"><title>mercedes</title><path d="M13.57,4.51c0-.17-.05-.17-.06,0L13,12.38l.53.31Z"/><path d="M11.11,14.22,13.33,13l-.51-.29-1.77,1.46c-.1.08-.06.12.06.05"/><path d="M13.61.29A12.68,12.68,0,0,0,.87,12.9,12.67,12.67,0,0,0,13.61,25.5,12.68,12.68,0,0,0,26.36,12.9,12.68,12.68,0,0,0,13.61.29m0,24.73A11.4,11.4,0,0,1,3.28,19.11l.27-.1a17,17,0,0,0,1.89,2.33,12.1,12.1,0,0,0,8.17,3.24A11.79,11.79,0,0,0,23.66,19c.16,0,.21-.11.16-.25a12.33,12.33,0,0,0,1.6-5.87,10.76,10.76,0,0,0-.49-3.32,12.43,12.43,0,0,0-.69-1.7.34.34,0,0,1,0-.16.35.35,0,0,1,.11.13,15.62,15.62,0,0,1,.8,1.71,8.49,8.49,0,0,1,.73,3.34A12.18,12.18,0,0,1,13.61,25M3.39,18.83l8.93-6.42L11.56,12l-8,6.61a12.14,12.14,0,0,1-1.52-5.67A11.32,11.32,0,0,1,13.39,1.55L11.76,11.67l.76.44,1-10.56c0-.14.11-.14.11,0l.06,11.14,1.81-1.06L13.79,1.55A11.54,11.54,0,0,1,25.13,12.9a12.11,12.11,0,0,1-1.51,5.7l-8-6.62-.77.44,8.55,6.19c.2.15.14.21-.08.09l-9.59-5.53v2.07l9.61,3.68a11.41,11.41,0,0,1-9.81,5.39,11.3,11.3,0,0,1-9.76-5.4l9.63-3.67V13.17l-10,5.76c-.24.13-.3.05-.09-.1m-.23.11a14,14,0,0,1-1.05-3.08.38.38,0,0,1,0-.15.71.71,0,0,1,.07.15,14.59,14.59,0,0,0,1.2,2.9Zm22.66-8.18a.42.42,0,0,1-.07-.15A12.86,12.86,0,0,0,22.5,4.94,12.31,12.31,0,0,0,13.69,1,12.12,12.12,0,0,0,1.57,13.13a13.06,13.06,0,0,0,.79,4.57c.4,1,1.11,2.35,1.15,2.41a.32.32,0,0,1,0,.16.75.75,0,0,1-.11-.13,23.06,23.06,0,0,1-1.29-2.45,12.38,12.38,0,0,1-1-4.61A12.48,12.48,0,0,1,13.64.6a12.24,12.24,0,0,1,12.18,10,.38.38,0,0,1,0,.15"/><path d="M21,17.09l-6.57-4.4L13.9,13,21,17.14c.12.08.15,0,0-.05"/></svg>