<svg id="opel" data-name="Слой 1" xmlns="http://www.w3.org/2000/svg" viewBox="0 0 34 26"><title>opel</title><path d="M14.17,13,6.24,12.6V13a10.66,10.66,0,0,0,20.91,2.92l-17.09.19Zm-4.11,3.86,16.13-.17A10,10,0,0,1,6.93,13.32l5.33.23-2.63,2a.7.7,0,0,0-.23.77.69.69,0,0,0,.66.46Z"/><path d="M32.68,13.06l-3.05-.13A12.76,12.76,0,0,0,16.89.29,12.6,12.6,0,0,0,9,3.06a12.78,12.78,0,0,0-4.3,6.43l-3.54,0a.68.68,0,0,0-.68.68v2.17a.68.68,0,0,0,.66.68l3.05.13a12.74,12.74,0,0,0,25,3.42l3.54-.05a.68.68,0,0,0,.68-.69V13.75a.69.69,0,0,0-.66-.69m0,2.82-4.06.06A12,12,0,0,1,4.85,13a3.85,3.85,0,0,1,0-.48l-3.74-.16V10.22l4.06-.05A12,12,0,0,1,28.94,13a3.57,3.57,0,0,1,0,.56l3.74.16Z"/><path d="M16.89,2.37a10.63,10.63,0,0,0-10.25,7.8L23.84,10l-4.22,3.21,7.93.34V13A10.67,10.67,0,0,0,16.89,2.37m4.66,10.21,2.7-2.05a.69.69,0,0,0-.41-1.24h0L7.59,9.47a10,10,0,0,1,19.27,3.35Z"/></svg>