<svg id="porche" data-name="Слой 1" xmlns="http://www.w3.org/2000/svg" viewBox="0 0 22 27"><title>porche</title><path d="M.94,9.12c.05,1.59.11,3.5.18,5.4a9.22,9.22,0,0,0,.36,2.39,14.45,14.45,0,0,0,4.32,6.7,11,11,0,0,0,4.49,2.5A2.07,2.07,0,0,0,11.91,26c.75-.41,1.51-.79,2.24-1.24A13.6,13.6,0,0,0,19.3,19a12.59,12.59,0,0,0,1.34-4.82c.06-1.16.06-2.33.07-3.49,0-2.67,0-5.34,0-8a.35.35,0,0,0-.28-.4c-.87-.25-1.73-.53-2.61-.73A32.21,32.21,0,0,0,11.56.88a26.66,26.66,0,0,0-7.28.79,17.06,17.06,0,0,0-3.12,1A.31.31,0,0,0,.94,3C1,5,.94,6.88.94,9.12m.6,4.94c0-1.09-.1-2.17-.13-3.26,0-1.43,0-2.86,0-4.29a.29.29,0,0,1,.19-.3A18.39,18.39,0,0,1,6.91,4.57c1.11-.15,2.22-.21,3.33-.32h.18a.1.1,0,0,1,.1.09V8.7a.1.1,0,0,1-.1.09H7.56s-.07,0,0-.07.32-.12.47-.21a.05.05,0,0,0,0-.1.82.82,0,0,0-.85.12.87.87,0,0,0-.21.22A.47.47,0,0,1,6.47,9L6,9S6,9,6,8.94a1.06,1.06,0,0,1,.38-.58c.06-.06.15-.1.22-.16l.06-.06a.08.08,0,0,0,0-.11A.12.12,0,0,0,6.5,8a1.2,1.2,0,0,0-.85.6c0,.06-.05.13-.08.19s-.06.28-.14.31a2.78,2.78,0,0,1-.64.19s-.1-.09-.1-.14A1,1,0,0,1,5,8.51a1.77,1.77,0,0,0,.17-.2s0-.08,0-.08a.58.58,0,0,0-.52.2,1.49,1.49,0,0,0-.36.9.23.23,0,0,1-.17.23l-.34.14c-.14.07-.2,0-.2-.12a1.29,1.29,0,0,1,.24-.83.21.21,0,0,0,0-.06.06.06,0,0,0,0-.09.41.41,0,0,0-.41.22,1.88,1.88,0,0,0-.2.93.59.59,0,0,1-.5.47c-.05,0-.09-.06-.13-.1s-.09-.17-.15-.19a.34.34,0,0,0-.3,0C2,10,2,10.14,2,10.24a.33.33,0,0,0,.07.13.08.08,0,0,1,0,.12l-.19.13a.24.24,0,0,0-.07.35.24.24,0,0,0,.33.14.44.44,0,0,1,.51,0,.32.32,0,0,0,.31,0,.43.43,0,0,0,0-.32c0-.11-.11-.2,0-.28A8.8,8.8,0,0,1,6.62,9.4h.29s0,.06,0,.11c0,.5,0,1,0,1.5,0,.12-.16.22-.21.35s-.21.12-.33.14l-.42,0c-.19,0-.21-.06-.19-.22a1.14,1.14,0,0,1,.53-.82l0,0s0-.05,0-.06a1,1,0,0,0-.73.42,1.56,1.56,0,0,0-.16.53c0,.32,0,.32-.35.41l-.35.09h0s-.06,0-.07-.09a1.14,1.14,0,0,1,.35-1s0-.07,0-.07a.59.59,0,0,0-.53.28,1,1,0,0,0-.15.89c0,.14,0,.2-.14.25a2.11,2.11,0,0,0-.34.16c-.13.07-.2,0-.23-.11a1.14,1.14,0,0,1,.15-.9l0-.08a0,0,0,0,0,0-.08.55.55,0,0,0-.41.27,1.06,1.06,0,0,0-.13.85c.07.34.08.37-.19.52a.12.12,0,0,1-.14,0l-.2-.16a.22.22,0,0,0-.34,0,.35.35,0,0,0,0,.31c.11.19.08.29-.1.41a.28.28,0,0,0-.1.41.3.3,0,0,0,.44,0l.13-.11c.09-.09.17-.08.27,0a.31.31,0,0,0,.21.11.39.39,0,0,0,.28-.13c.05-.05,0-.18,0-.26a.51.51,0,0,0-.12-.16.08.08,0,0,1,0-.12A8.18,8.18,0,0,1,6.85,11.9.09.09,0,0,1,7,12v2.24a.11.11,0,0,1-.1.1h-5c-.29,0-.29,0-.31-.28M6.22,22.7l-.09.4s0,.08-.06.08,0,0,0-.09v-.24a.25.25,0,0,1,.06-.16l0-.05s.07-.06.08-.05,0,.06,0,.11m4.42.14c-.08.08-.23.14-.15.27a.09.09,0,0,1,0,.12c-.13.1-.12.13.06.3s.05.06,0,0h0c-.06,0-.14,0-.18,0a.17.17,0,0,0-.05.16c0,.05.1.07.17.1s.1,0,.12,0,0,.08,0,.12,0,.12,0,.18a.18.18,0,0,1-.07.15.15.15,0,0,0-.07.21s0,.05,0,.08-.08.18-.06.2a.67.67,0,0,0,.19.09.09.09,0,0,1,.08.09s0,0-.08,0a.2.2,0,0,0-.08,0s-.11,0-.14,0a.25.25,0,0,0-.08.17s.08.09.13.11a1.39,1.39,0,0,0,.19.06c.05,0,.09,0,.08.07s-.06,0-.11,0l-.2-.08-.45-.12h-.1s0,0,0,0-.07-.06-.12-.07H9.44a.07.07,0,0,1-.06-.1.19.19,0,0,0,0-.08.41.41,0,0,0,0-.19.17.17,0,0,0-.13-.07.64.64,0,0,0-.13.15.26.26,0,0,0,0,.08.05.05,0,0,1-.09,0,.36.36,0,0,0-.15-.08H8.75a.07.07,0,0,1-.05-.1c.07-.15.13-.28.18-.41s0-.06-.05-.1a.09.09,0,0,0-.13,0s-.07,0-.08.07,0,.3-.09.44,0,0-.06,0a.07.07,0,0,1-.06-.09.58.58,0,0,0,0-.26c0-.07-.3-.11-.47-.1a.11.11,0,0,1-.12-.06.21.21,0,0,0-.27-.07s-.07,0-.06,0a.67.67,0,0,1,.06-.17c.06-.13,0-.19-.12-.23a.52.52,0,0,0-.25-.08.5.5,0,0,0-.21.1s-.07,0-.06,0,0-.16.06-.25.06-.14,0-.18a.18.18,0,0,0-.17-.07s-.08.11-.11.17a.19.19,0,0,0,0,.08s0,.07-.07.06,0-.05,0-.1a.34.34,0,0,1,0-.1c0-.14.09-.28.13-.42s-.06-.15-.16-.13-.1,0-.12,0,0-.07,0-.08h0c.17,0,.36,0,.51.13s.09,0,.14,0a.16.16,0,0,1,.15,0l.06.06a.08.08,0,0,0,.12,0c0-.05.07-.11.12-.17a.12.12,0,0,1,.13,0c.12,0,.29,0,.42.14a.54.54,0,0,0,.34.12c.05,0,.11-.1.16-.15a.61.61,0,0,1,.07-.1s.06-.07.07-.06,0,.06,0,.1a.75.75,0,0,1-.07.12.12.12,0,0,0,0,.14.21.21,0,0,1,.08.06s.08,0,.09,0,0-.11.05-.15,0-.13.09-.15.08,0,.12.05a.1.1,0,0,0,.12.05l.1,0a.13.13,0,0,1,.14,0,.15.15,0,0,1,.05.06.07.07,0,0,0,.12,0s.06-.08.09-.13a.21.21,0,0,1,.13-.07s0,0,0,.06,0,0-.06.06-.07.11-.05.13A.44.44,0,0,0,10,23l.18,0c.05,0,.12.08.15.06a.26.26,0,0,0,.11-.16c0-.17,0-.21.17-.16s.07.08,0,.11m9.48-8.17a12.48,12.48,0,0,1-1.81,5.24,12.87,12.87,0,0,1-3,3.45,19.77,19.77,0,0,1-3.74,2.32l-.18.07s-.08,0-.08-.06V18.33s0-.1.09-.09.3.17.4,0a.11.11,0,0,1,.13-.05c.11,0,.22.1.31.07s.1-.15.15-.28a.28.28,0,0,1,.12-.12A4.55,4.55,0,0,0,14,16.8a.39.39,0,0,1,.14-.08,4.48,4.48,0,0,1,4.06.26,2.72,2.72,0,0,1,.34.24c.05,0,.07,0,.07,0a.72.72,0,0,0,0-.27,2.47,2.47,0,0,0-.36-.49c-.13-.13-.14-.21.05-.3s.39-.17.63-.26a0,0,0,0,0,0-.09.53.53,0,0,0-.17-.1.94.94,0,0,0-.91.26c-.06.08-.18.19-.26.17a2,2,0,0,1-.54-.21.25.25,0,0,1,0-.18,4.89,4.89,0,0,1,.46-.45.56.56,0,0,1,.15-.1.07.07,0,0,0,0-.11.63.63,0,0,0-.72,0,1.76,1.76,0,0,0-.45.49c-.12.2-.23.34-.49.31a.92.92,0,0,0-.23,0,.07.07,0,0,1-.07-.09,1.07,1.07,0,0,1,.54-.77c.05,0,.05-.06,0-.09a.37.37,0,0,0-.11,0,1,1,0,0,0-1.07.8c-.11.38-.14.42-.52.47-.05,0-.07,0-.05-.07a1.56,1.56,0,0,0,.19-.39c.1-.35.17-.71.24-1.07,0-.12.06-.17.19-.17h4.77c.16,0,.21.07.19.22M1.6,3A17.19,17.19,0,0,1,5,1.88a27.79,27.79,0,0,1,7.1-.63,31.11,31.11,0,0,1,7,1c.37.11.73.25,1.09.39a.29.29,0,0,1,.16.2c0,.93,0,1.85,0,2.78,0,0,0,0,0,.06s-.05,0-.1,0l-1.11-.39a26,26,0,0,0-4.45-1.08l-.18,0A18.33,18.33,0,0,0,11.31,4C11,4,11,4,11,4.38c0,.54,0,1.08,0,1.62,0,.2.05.26.26.26h8.94a.09.09,0,0,1,.1.09V6.4a.09.09,0,0,1-.1.09H11.21c-.3,0-.3,0-.3.31v2a.53.53,0,0,0,0,.12.07.07,0,0,0,.11,0l.09-.05a.42.42,0,0,1,.15,0c.17,0,.24-.07.2-.21a.16.16,0,0,1,0-.12l.05,0,0,0s0,0,.09.06.21.13.25,0A1.86,1.86,0,0,1,12,8.13s0,0-.06-.07a.09.09,0,0,0-.13,0l-.08.1a.42.42,0,0,0,0,.1c0,.05,0,.08-.07.08s0,0,0-.1,0-.05,0-.08.07-.14,0-.16a.88.88,0,0,0-.19-.12l-.08,0s0-.07,0-.11a.19.19,0,0,0,.05-.25s-.09,0-.14,0h0a.06.06,0,0,1-.09-.06c0-.13,0-.26,0-.4s0-.08.08-.09a.14.14,0,0,1,.11,0,.56.56,0,0,1,.05.08.06.06,0,0,0,.1,0l.14-.15.06,0s.06,0,.07,0,0,0,0,.07l0,0c0,.06,0,.14,0,.17a.17.17,0,0,0,.16,0C12,7.12,12,7,12,7s0-.09.05-.15.05-.06.08,0,.16.18.26.11a.06.06,0,0,1,.1,0c.05.09.09.17.23.1a.13.13,0,0,1,.07,0c.07.07.17.12.25,0a.29.29,0,0,0,0-.17.08.08,0,0,1,.07-.09s.05,0,.05.09a.22.22,0,0,0,0,.08.4.4,0,0,0,0,.19s.11.06.13,0a.5.5,0,0,0,.11-.17s0-.09,0-.14.05-.05.09,0l.09.08a.09.09,0,0,0,.12,0l.12-.14a.18.18,0,0,1,.15-.05l.53.09a.07.07,0,0,1,.05.1.42.42,0,0,0,0,.13.89.89,0,0,0,0,.14.11.11,0,0,0,.12.06s.07,0,.08,0A2.77,2.77,0,0,0,15,6.88a.09.09,0,0,1,.11-.07c.15,0,.31,0,.46.08s.12,0,.22,0,.08,0,.06.06l-.09.22s0,.05,0,.06a.69.69,0,0,0,.17.17.52.52,0,0,0,.26.08.15.15,0,0,0,.16-.21s0-.06,0-.1.06-.14,0-.2a.14.14,0,0,0-.22-.06h0a.08.08,0,0,1,0,0s0,0,.09,0a.76.76,0,0,1,.35,0,.22.22,0,0,0,.2.06s.11,0,.14,0S17,7,17.05,7s.11-.07.18-.14a.14.14,0,0,1,.13-.05.34.34,0,0,0,.15,0,1.13,1.13,0,0,1,.56.16s.14,0,.2-.09a.05.05,0,0,0,0-.05s0,0,0,0,0,.09,0,.13a.12.12,0,0,0,.1.1c.13,0,.16-.11.16-.25s0-.07.08,0l.09,0s.09.07.11.06.21,0,.31.07.13-.06.19-.11a.1.1,0,0,0,.05,0s0,0,0,0,0,.17.21.22.2.15.32.08.08,0,.09,0v0a.16.16,0,0,1,0,.15c-.11.11-.1.15.06.27s0,.07,0,.08l-.18,0s0,.13,0,.14a.64.64,0,0,0,.2.08c.05,0,.11.07.08.11s-.2.2-.05.3,0,.05,0,.06-.11.26-.17.39,0,.07,0,.07h.07a.09.09,0,0,0,.09-.08s0-.09,0-.09,0,0,0,.09,0,.14,0,.22a.11.11,0,0,1-.09.1H14.94c-.19,0-.26,0-.25.24,0,.54,0,1.09,0,1.64,0,.22.09.26.29.26h5.07a.12.12,0,0,1,.11.09.13.13,0,0,0,0,.06.09.09,0,0,1-.08.1H15c-.31,0-.31,0-.31.32,0,.65,0,1.3,0,2,0,.23,0,.24.22.14,0,0,.08,0,.11,0l.14-.05a.08.08,0,0,0,0-.12.39.39,0,0,0-.08-.1l-.06,0s0-.05,0,0,.19,0,.26-.24c0,0,0,0,0-.06s.05-.16,0-.2a.35.35,0,0,0-.15-.07s-.09,0-.09-.08a.13.13,0,0,1,0-.06c0-.08.08-.18,0-.21a.31.31,0,0,0-.17-.09.13.13,0,0,1-.08-.12c0-.08,0-.16,0-.26s.05-.09.09-.07l.09,0s.12,0,.16,0a.22.22,0,0,0,.09-.16c0-.14,0-.15.12-.13a.06.06,0,0,1,0,.1c-.08.09-.13.18-.06.28a.15.15,0,0,0,.06.06l.08,0c.08,0,.13-.08.11-.21s0-.08,0-.12.07,0,.09,0l0,0a.18.18,0,0,0,.13.09c.09,0,.13,0,.15-.18a.11.11,0,0,1,.11-.07c.14,0,.3,0,.42.09l0,.07H17s.07,0,0,.08l-.05.07a.25.25,0,0,0,0,.17.15.15,0,0,0,.13.07.22.22,0,0,0,.14-.11c0-.12.06-.24.09-.37a.1.1,0,0,1,.11-.07l.59.08a.13.13,0,0,0,.1,0s0,0,0,.05l0,0a.43.43,0,0,0,.05.1.19.19,0,0,0,.11,0h0c.05,0,.08,0,.06.05l0,.08a.33.33,0,0,0,0,.19.18.18,0,0,0,.17.05s.06-.11.08-.17a.61.61,0,0,0,0-.13.76.76,0,0,1,0-.11.09.09,0,0,0-.06-.11l-.12,0h0l0,0s0,0,.09,0l.26,0,.27,0a.46.46,0,0,1,.16.07c.12.12.16.11.28,0a.18.18,0,0,1,.14-.06c.13,0,.27-.05.39,0s.07.07.06.09,0,0-.09,0l-.23-.08c-.14-.06-.2,0-.23.13s0,.1,0,.15-.06.18,0,.23.1.05.18.07.08.05.06.09a.19.19,0,0,1,0,.07c0,.06-.05.14,0,.18a.19.19,0,0,0,.15.07.48.48,0,0,0,.1-.17.58.58,0,0,1,.05-.14c.09-.15.06-.24-.12-.26s-.08,0-.09,0a.09.09,0,0,1,0-.06s0-.06,0-.06h.06l.21.09a.11.11,0,0,1,.06.13,2.9,2.9,0,0,0-.11.38.59.59,0,0,0,0,.13.16.16,0,0,1,0,.15c-.05.05-.09.1-.09.13s.07.1.13.15a.21.21,0,0,1,.07.15c0,.18,0,.38,0,.6a.1.1,0,0,1-.1.09H15c-.17,0-.24.06-.24.23A3.77,3.77,0,0,1,12,17.81a3.47,3.47,0,0,1-.71.16c-.23,0-.28.11-.28.32,0,1.21,0,2.41,0,3.62v3.76a.45.45,0,0,1,0,.11.06.06,0,0,1-.09.06c-.08-.06-.07-.16-.07-.25,0-.73,0-1.45,0-2.18,0-.28,0-.56,0-.84s0-.33-.34-.33H6.59c-.48,0-1,0-1.43,0a.49.49,0,0,1-.23-.08s-.08-.06-.07-.09,0,0,.1,0h5.59c.3,0,.3,0,.3-.3v-1.9c0-.26,0-.27-.27-.26l-7.19,0c-.26,0-.31,0-.35-.26,0-.05,0-.08.07-.07l.13,0c.06,0,.13.05.18,0a.22.22,0,0,0,.08-.15A.4.4,0,0,0,3.32,19L3,18.92a.09.09,0,0,1-.07-.11c0-.09,0-.16,0-.23a.51.51,0,0,0,0-.09s0,0,0-.08l0-.06s0-.09,0-.12l-.13-.06A1.42,1.42,0,0,1,2.48,18c-.1-.06,0-.11,0-.15a.2.2,0,0,0,0-.15c0-.13-.13-.15-.28-.12s-.07,0,0-.05v0a.1.1,0,0,1,.13-.05.39.39,0,0,0,.2.05s.06-.07.08-.15a.12.12,0,0,1,.12-.07l.25,0a.22.22,0,0,1,.15.08c.09.09.13.08.25-.07s0,0,0,0,.07.2.25.15.07,0,.06.06,0,.1,0,.14a.31.31,0,0,0,0,.19.16.16,0,0,0,.13.06.23.23,0,0,0,.11-.14A1.57,1.57,0,0,0,4,17.62s0-.1,0-.11a1,1,0,0,0-.17-.1l-.07,0s-.07,0-.06-.06,0,0,.1,0a.68.68,0,0,1,.34.09c.16.14.24.1.3,0s.06,0,.07,0a.71.71,0,0,0,.08.15s.06,0,.1,0a.26.26,0,0,1,.17,0l.25.13c.05,0,.08.06.07.08s0,0-.08,0-.06,0-.07,0-.15-.12-.23,0a.22.22,0,0,0,0,.14l.15,0,.17.06a.32.32,0,0,0,.15.06c.1,0,.13-.11.08-.22s0-.06.07-.1.07-.11,0-.15-.08-.07-.13-.1a.13.13,0,0,0-.08,0s-.07,0,0-.08.06,0,.11,0a1.79,1.79,0,0,0,.45.17c.13,0,.17-.08.14-.18s0-.08.06-.08h.38a.45.45,0,0,1,0,.16c0,.07-.08.16,0,.2s.13,0,.2.08.08,0,.08.05a.52.52,0,0,1,0,.11c0,.05,0,.06-.07,0a.17.17,0,0,0-.06-.06.24.24,0,0,0-.18,0s-.07.12,0,.15.1.07.15.1l.18.07c.1.07.22,0,.2-.06a.28.28,0,0,1,.1-.26.07.07,0,0,0,0-.12.69.69,0,0,0-.13-.11l-.06,0a.06.06,0,0,1,0-.09s0,0,.08,0,.28,0,.37.12.08.07.13.05.16-.11.08-.25,0-.07,0-.08.11,0,.13,0a.22.22,0,0,0,.34,0s0,0,0,0a1.15,1.15,0,0,0-.11.31.2.2,0,0,0,.07.11.12.12,0,0,0,.14,0l.1-.11a.64.64,0,0,0,0-.07s0-.06.09,0a1.46,1.46,0,0,0,.47.18.47.47,0,0,1,.2.07A.26.26,0,0,0,9,17.9h.12c.05,0,.1,0,.11,0l0,0L9.1,18a.37.37,0,0,0,0,.15,1.52,1.52,0,0,0,.43.2s.1-.08.18-.17a.15.15,0,0,1,.14,0l.36.1.12,0,.08,0a.06.06,0,0,1,.05.09.19.19,0,0,0,0,.08c0,.06,0,.17,0,.18.21.09.17.28.21.44l0,.05a.11.11,0,0,0,.1,0c.08,0,.1-.07.1-.16,0-.28,0-.56,0-.84,0-.13-.05-.19-.19-.2a4.27,4.27,0,0,1-2.27-1,.51.51,0,0,0-.3-.09L2.29,17C2.12,17,2,17,2,16.78a.09.09,0,0,1,.09-.09H7.86a.17.17,0,0,0,.1,0s0-.06-.06-.1a2.55,2.55,0,0,1-.66-1.46,4.65,4.65,0,0,1-.07-.75l0-5c0-.34,0-.35.33-.35h3c.2,0,.25-.06.25-.26,0-1.48,0-3,0-4.45,0-.19-.05-.27-.25-.26A23.17,23.17,0,0,0,2.23,5.66c-.26.1-.5.22-.77.34a.06.06,0,0,1-.09,0V5.86c0-.85,0-1.69,0-2.54A.35.35,0,0,1,1.6,3"/><path d="M16.47,12.19a.64.64,0,0,1,.18.06.31.31,0,0,0,.15,0,.13.13,0,0,0,.07-.19l0-.07h-.09c-.08,0-.17,0-.23-.09s-.11,0-.13,0-.07.16-.05.17a.59.59,0,0,0,.14.06"/><path d="M18.15,12.13h0a.31.31,0,0,1-.11,0h0a1.45,1.45,0,0,0-.22-.09s0,0,0,.06a.1.1,0,0,0,0,.11l.14.07.1,0,.1,0a.07.07,0,0,0,.1,0v-.08c0-.06,0-.1,0-.11s-.05,0-.1,0"/><path d="M7.35,9.48c0,1.64,0,3.29,0,4.94A3,3,0,0,0,7.76,16a3.67,3.67,0,0,0,2.43,1.72,2.41,2.41,0,0,0,1,.11,4.73,4.73,0,0,0,2.42-1.14,2.68,2.68,0,0,0,1-2.12c0-1.71,0-3.42,0-5.12,0-.19,0-.25-.24-.24H7.66c-.29,0-.31,0-.31.31m3.58-.07H14c.21,0,.29,0,.28.27,0,1.65,0,3.29,0,4.94a2.44,2.44,0,0,1-.94,1.85,4.39,4.39,0,0,1-2.2,1.08,1,1,0,0,1-.43,0,4,4,0,0,1-2.24-1.07,3.08,3.08,0,0,1-.85-2.12c0-1.56,0-3.12,0-4.69,0-.18.05-.24.24-.23h3.09"/><path d="M17.8,4.35l.91.25L19.79,5a.08.08,0,0,0,.1-.07c.05-.32,0-.34-.31-.45s-.79-.26-1.18-.38c-.24-.07-.28-.11-.2-.36a.09.09,0,0,1,.11,0l1.49.45A.07.07,0,0,0,19.9,4c0-.28,0-.3-.3-.4s-.89-.28-1.33-.42a.12.12,0,0,1-.09-.11V3a.07.07,0,0,1,.09-.07l1.51.43a.09.09,0,0,0,.11-.07c.06-.29,0-.31-.28-.42l-1-.3-.81-.2c-.05,0-.1,0-.11,0a0,0,0,0,0,0,0q0,.92,0,1.83s.09.13.15.15"/><path d="M1.73,5.13a.07.07,0,0,0,.09.07c.39-.07.43-.14.44-.52a.25.25,0,0,1,.19-.26l1.4-.5a.42.42,0,0,0,.31-.42c0-.21,0-.42,0-.63S4,2.58,3.86,2.55a1,1,0,0,0-.33,0l-1.68.59a.28.28,0,0,0-.12.2c0,.44,0,.87,0,1.3Zm.54-1.58a.14.14,0,0,1,.08-.12L3.5,3.05c.06,0,.22,0,.22.07s0,.31-.06.33c-.43.18-.86.32-1.31.48a.06.06,0,0,1-.08-.06Z"/><path d="M10.28,2.74h1.2c.13,0,.22,0,.22.19s-.12.13-.22.12h-1l-.42,0a.09.09,0,0,0-.09.09v.2a.09.09,0,0,0,.09.09c.52,0,1,0,1.54,0s.55-.2.57-.61a1.49,1.49,0,0,0,0-.21c0-.19-.12-.3-.31-.3l-1.24,0c-.11,0-.24.05-.26-.12s.11-.2.24-.2.52,0,.78,0H12c.05,0,.09,0,.09-.06v0c0-.21,0-.3-.27-.29-.4,0-.8,0-1.2,0-.64,0-.76,0-.72.82,0,.28.14.37.42.37"/><path d="M4.48,3.41c0,.17,0,.33,0,.5s.16.41.45.34c.48-.12,1-.25,1.43-.35.3-.07.42-.18.43-.49V2.34c0-.28-.16-.43-.44-.38l-1.58.32a.36.36,0,0,0-.31.39c0,.18,0,.37,0,.56s0,.09,0,.09a.41.41,0,0,1,0,.09m.69-.77c.3-.07.61-.14.92-.19.15,0,.24,0,.23.21V3c0,.53.08.44-.45.58l-.67.17C5,3.8,5,3.76,5,3.58s0-.44,0-.66a.26.26,0,0,1,.22-.28"/><path d="M7.27,3.72c.33,0,.38,0,.38-.38,0,0,0,0,0,0s0-.2.2-.21.44,0,.66-.06c.39,0,.44,0,.56.36a.27.27,0,0,0,.14.14,1.67,1.67,0,0,0,.3,0,.06.06,0,0,0,.06-.09l-.22-.57a.2.2,0,0,1,0-.17,1.14,1.14,0,0,0,.09-.63c0-.29-.12-.42-.42-.4-.57,0-1.14.09-1.71.14-.06,0-.14.09-.14.14V3.62a.11.11,0,0,0,.09.1m.41-1.48a.2.2,0,0,1,.11-.11L8.73,2c.15,0,.22.06.22.21s0,.3-.18.32l-1,.1a.1.1,0,0,1-.1-.09c0-.12,0-.23,0-.34"/><path d="M15.14,3.78l.27.05c.05,0,.08,0,.08-.08V3.09A.07.07,0,0,1,15.58,3l1.1.25s.07.1.08.15,0,.37,0,.55a.2.2,0,0,0,.1.15,1.67,1.67,0,0,0,.26.06.07.07,0,0,0,.09-.08c0-.61,0-1.2,0-1.79a.18.18,0,0,0-.09-.12l-.27,0a.07.07,0,0,0-.09.07v.54a.08.08,0,0,1-.09.08L15.6,2.61s-.09-.1-.1-.15,0-.29,0-.44,0-.13-.08-.14l-.27,0a.08.08,0,0,0-.09.08V3.67a.12.12,0,0,0,.09.11"/><path d="M12.79,3.52c.27,0,.54,0,.8.07l1,.12a.11.11,0,0,0,.11-.08c0-.27,0-.3-.28-.34l-1.27-.15c-.06,0-.16-.08-.16-.12,0-.28,0-.56,0-.88a.09.09,0,0,1,.09-.09l1.53.12a.08.08,0,0,0,.09-.08V1.86a.1.1,0,0,0-.09-.1l-1.77-.14a.3.3,0,0,0-.32.32V3.26c0,.18.08.25.25.26"/><path d="M17.32,7.45s.08,0,.13,0l.12,0a.08.08,0,0,0,.11-.06.34.34,0,0,0,0-.12.1.1,0,0,1,.12-.05.29.29,0,0,0,.1,0,.28.28,0,0,0,.18,0s.05-.1,0-.12A.46.46,0,0,0,18,7.08s-.08,0-.12,0l-.12,0a.09.09,0,0,0-.12,0l-.05.11a.24.24,0,0,1-.1.12s-.07,0-.07,0,0-.07,0-.08.12-.18,0-.27a.14.14,0,0,0-.15,0,.16.16,0,0,0-.07.23s-.05.07-.07.11-.06.11,0,.13a.46.46,0,0,0,.16.11"/><path d="M19.85,8.05,19.71,8c-.06,0-.12-.06-.17,0a.22.22,0,0,0-.06.07s0,.09,0,.1,0,0,0,.08a.09.09,0,0,0,0,.06.35.35,0,0,0,0,.2.14.14,0,0,0,.11.06c.1-.09.14,0,.2.05s.16,0,.17,0A3.66,3.66,0,0,0,20,8.16s-.07-.08-.12-.11,0,0-.06,0"/><path d="M12.4,7.69s.13,0,.14-.05a2.47,2.47,0,0,0,.1-.35.11.11,0,0,0-.06-.13L12.27,7s-.1,0-.14,0a.08.08,0,0,0,0,.08c.05.11,0,.17-.09.24a.07.07,0,0,0,0,.07l.41.22"/><path d="M5.27,19,5.16,19s-.08,0-.09-.07,0-.07,0-.11a.51.51,0,0,0,0-.2S5,18.5,5,18.51a.63.63,0,0,0-.1.2.38.38,0,0,1,0,.1l0,.12a.09.09,0,0,0,.06.12l.09,0a.17.17,0,0,1,.1.12v.07s0,.06.09,0a.46.46,0,0,0,.07-.07l.06-.1a.08.08,0,0,0,0-.12"/><path d="M13.37,8.5s0-.09,0-.13.07-.15,0-.17-.12-.06-.18-.09l-.12,0-.16,0c-.05,0-.08,0-.07.07v0l0,.09h.13a.06.06,0,0,1,.05.09.42.42,0,0,0,0,.1.22.22,0,0,0,0,.16.15.15,0,0,0,.14,0,.33.33,0,0,0,.11-.16"/><path d="M14.58,8.16h-.16c-.05,0-.08,0-.07.08v0a.39.39,0,0,0,0,.11l.11,0h0c.05,0,.09,0,.08,0s0,0,0,.05a.4.4,0,0,0-.09.2s.13.09.16.07a.54.54,0,0,0,.11-.18.5.5,0,0,0,0-.13s.06-.12,0-.15a.49.49,0,0,0-.16-.1l-.13,0"/><path d="M3.67,18.67a.75.75,0,0,0,.15.09s.11,0,.14,0S4,18.64,4,18.6s-.07-.09-.13-.11-.14,0-.2-.06-.23,0-.22.11,0,.14-.07.2,0,.15,0,.19.13,0,.19,0,0,0,.05,0l0-.05s0,0,0-.07,0-.09,0-.1l0,0"/><path d="M19.49,13.47a0,0,0,0,1,0,0c0,.06,0,.13,0,.19a.34.34,0,0,0,0,.17.17.17,0,0,0,.13.07.36.36,0,0,0,.11-.16.5.5,0,0,0,0-.13c0-.05,0-.06.08,0s.17.18.27,0,0-.16,0-.17a2.2,2.2,0,0,0-.44-.12s-.07.07-.11.11"/><path d="M8.27,18h.05s0,0,0,.06a.08.08,0,0,1,0,.05c-.13.1-.08.18,0,.27a.07.07,0,0,0,.11,0l.08-.14c0-.06,0-.12,0-.18s0-.12,0-.16-.1-.06-.15-.08a.42.42,0,0,0-.16,0,.74.74,0,0,0-.21,0,.18.18,0,0,0,0,.12.78.78,0,0,0,.2.11"/><path d="M16,12.74a.46.46,0,0,0,.09-.15.17.17,0,0,0,0-.07s0-.06.08,0l.07,0a.34.34,0,0,0,.17,0,.18.18,0,0,0,.06-.15c0-.05-.1-.12-.13-.11s-.19,0-.24-.1a.09.09,0,0,0-.13,0,.21.21,0,0,0-.06.1.41.41,0,0,1-.09.3s0,.11.06.17H16"/><path d="M13.6,7.7l.14,0c.06,0,.13,0,.18,0s.08-.12.06-.14a.45.45,0,0,0-.18-.1l-.08,0c-.05,0-.06,0,0-.08s.17-.16,0-.27-.16,0-.16,0a1.71,1.71,0,0,0-.13.44s.09.07.15.1"/><path d="M18.74,7.55a.47.47,0,0,0,.17,0,.41.41,0,0,0,.19,0s.07-.11,0-.13A.37.37,0,0,0,19,7.37a.3.3,0,0,0-.12,0c-.05,0-.06,0,0-.06s.05,0,.05-.06a.56.56,0,0,0,0-.12A.1.1,0,0,0,18.85,7s-.07,0-.1,0-.05.11-.07.18a.5.5,0,0,0-.05.13s-.07.11-.05.14a.38.38,0,0,0,.16.11"/><path d="M16,8.5l.05,0a.82.82,0,0,0,.22,0s0-.14,0-.15a1.46,1.46,0,0,0-.39-.16s-.15.1-.14.13a.26.26,0,0,1-.09.26s0,.08,0,.13.05.08.07.08.07,0,.09-.08l.07-.13,0-.06a0,0,0,0,1,.07,0"/><path d="M18.51,8s-.06,0-.09,0l-.12,0c-.06,0-.15-.07-.2-.05a.11.11,0,0,0,0,.17s.08.1.13.08.11-.06.15,0,0,.11,0,.15-.09.18,0,.22a.19.19,0,0,0,.15,0,2.35,2.35,0,0,0,.15-.42S18.55,8,18.51,8"/><path d="M18.6,13.22l.13,0a.75.75,0,0,0,.12.07s.11.05.15,0a.36.36,0,0,0,.1-.14.61.61,0,0,0,0-.18.31.31,0,0,0,0-.19s-.12,0-.15,0a.34.34,0,0,0-.08.16.81.81,0,0,0,0,.11c0,.05,0,.06-.07,0L18.71,13a.05.05,0,0,0-.1,0l-.05.09a.09.09,0,0,0,0,.12"/><path d="M17.11,7.89l-.07,0a.66.66,0,0,0-.2-.06.36.36,0,0,0-.18,0,.11.11,0,0,0,0,.12.19.19,0,0,0,.13.1c.19,0,.26,0,.1.19,0,0,0,.14,0,.18s.15,0,.16,0a1.52,1.52,0,0,0,.1-.34.12.12,0,0,0,0-.14"/><path d="M7.38,18.51c0-.05,0-.07.08,0l.09,0,.11,0a.11.11,0,0,0,.06-.12c0-.05,0-.09,0-.09s-.23-.1-.33-.11-.1.23-.18.35a.13.13,0,0,0,0,.13.16.16,0,0,0,.07.07c.09,0,.16,0,.17-.21"/><path d="M8.89,18.7l-.09-.05a.07.07,0,0,1,0-.11s0,0,.06-.07a.19.19,0,0,0,0-.08.1.1,0,0,0-.1-.09c-.05,0-.09,0-.11,0a1,1,0,0,0-.12.34s.08.15.11.14.16,0,.21.09S8.93,19,9,19a.11.11,0,0,0,.09-.15c0-.05-.11-.09-.18-.14"/><path d="M14.84,8.07l.12,0H15c.21.12.21.12.27-.12l0,0c.12-.2.13-.23,0-.29s-.12,0-.12.06,0,.17,0,.22S15,8,15,8l0,0-.1,0a.09.09,0,0,0-.12,0h0a.11.11,0,0,0,.05.12"/><path d="M12,8.92h0a.12.12,0,0,0,.12-.08.43.43,0,0,0,0-.05.07.07,0,0,1,.1,0,.15.15,0,0,0,.07,0,.25.25,0,0,0,.17,0s.06-.14,0-.16l-.14-.07s-.09,0-.09,0,0,0-.08,0-.21-.09-.24,0a1.31,1.31,0,0,0-.06.31.08.08,0,0,0,.07.09"/><path d="M16,13.6a.41.41,0,0,0-.15,0,.5.5,0,0,0,0,.13s0,.07,0,.11,0,.12.06.12.09-.07.14-.12a.07.07,0,0,1,.11,0,.1.1,0,0,0,0,0,.17.17,0,0,0,.15,0,.18.18,0,0,0,.09-.13c0-.27-.33-.05-.39-.24"/><path d="M19.12,12.66a.43.43,0,0,0,.1.09.42.42,0,0,0,.19.06.41.41,0,0,0,.15,0,.17.17,0,0,0,.06-.06.12.12,0,0,0,0-.14s0-.05-.06-.06a1,1,0,0,0-.34-.09s-.06,0-.09,0a.1.1,0,0,0,0,.13"/><path d="M7.08,18.79a.73.73,0,0,0-.21-.06c-.06,0-.13,0-.16,0a.19.19,0,0,0,0,.16c0,.05.1.07.15.09l.18.07s0,0,.06,0a.11.11,0,0,0,.11,0s.07-.07.07-.11-.09-.11-.15-.14"/><path d="M5.63,18.69a.66.66,0,0,0-.15,0,.51.51,0,0,0-.21,0s0,.12,0,.16,0,.05.08.07.09,0,.1,0,0,0,.08,0l.06,0a.37.37,0,0,0,.18,0,.17.17,0,0,0,.06-.12.76.76,0,0,0-.17-.13"/><path d="M19.31,8.59l-.15-.05c-.06,0-.13,0-.18,0s-.08.11-.07.15l.08.08s.08,0,.1,0,.05,0,.09,0l.08,0a.28.28,0,0,0,.18,0,.14.14,0,0,0,0-.16s-.1-.06-.16-.08"/><path d="M7,18.28c.05,0,.08-.1.11-.15s0-.11,0-.13a.15.15,0,0,0,0-.24.12.12,0,0,0-.14,0l0,0a.17.17,0,0,0-.1.12,1.23,1.23,0,0,1,0,.19c0,.06,0,.13,0,.18s.12.07.15.05"/><path d="M16.36,13a.23.23,0,0,0,0,.18.15.15,0,0,0,.15,0,.29.29,0,0,0,.1-.16s0-.11,0-.16,0-.14,0-.18a.15.15,0,0,0-.16,0l-.06.06c0,.05,0,.09,0,.1s0,0,0,.09a.16.16,0,0,0,0,.07"/><path d="M17.66,12.55s.09.07.15.1l.16.06c.05,0,.11,0,.15,0s.05-.05.08-.08a.09.09,0,0,0,0-.13l-.12-.07a.55.55,0,0,0-.18-.06.25.25,0,0,0-.17,0,.17.17,0,0,0-.05.16"/><path d="M14.28,8.39a.17.17,0,0,1-.19-.06s-.14,0-.19,0,0,.11,0,.14a.35.35,0,0,0,.17.09h.12c.06,0,.14.09.19.07s.1-.1.08-.17a.28.28,0,0,0,0-.11s-.05,0-.1,0"/><path d="M19.41,7.77a.36.36,0,0,0,0-.11.09.09,0,0,0-.06-.12.17.17,0,0,0-.1,0s-.06.11-.08.17,0,.07,0,.11a.68.68,0,0,0,0,.14.09.09,0,0,0,.07.11s.08,0,.09,0a.22.22,0,0,0,.05-.12s0-.09,0-.1,0,0,0,0,0,0,0,0"/><path d="M6.57,18.67a.23.23,0,0,0-.1-.05.09.09,0,0,0-.12.06.42.42,0,0,0,0,.1.65.65,0,0,0,0,.13.5.5,0,0,1,0,.12.11.11,0,0,0,.07.11H6.4A.39.39,0,0,0,6.46,19c0-.05,0-.09,0-.1s0,0,0,0l0,0c0-.07.08-.16.06-.2"/><path d="M14.9,7.76s.15,0,.22,0,0,0,0,0,0,0-.05-.09,0-.07,0-.13a.26.26,0,0,0,0-.2s-.12-.06-.14,0a.5.5,0,0,0-.11.17s0,.11,0,.14-.1.18,0,.23"/><path d="M4.17,18.08s.12-.11.1-.14,0-.13.06-.19a.22.22,0,0,0,0-.18.14.14,0,0,0-.14,0,.16.16,0,0,0-.07.07s0,.08,0,.09,0,.06,0,.09a.25.25,0,0,0,0,.07A.29.29,0,0,0,4,18s.12.08.15,0"/><path d="M6.12,18.5s-.16.08-.15.1a.33.33,0,0,1-.09.3.33.33,0,0,0,.08.16.16.16,0,0,0,.15,0,2.31,2.31,0,0,0,.1-.34.17.17,0,0,0,0-.14.08.08,0,0,0-.06,0"/><path d="M17.85,13.46s-.12,0-.14,0a.17.17,0,0,0-.05.16s.09.07.14.09a.59.59,0,0,0,.14,0l.14,0a.07.07,0,0,0,.09-.07v-.08a.41.41,0,0,1,0-.09h-.09c-.09,0-.17,0-.24-.08"/><path d="M19.15,7.34a.35.35,0,0,0,.22.08l.13,0a.13.13,0,0,0,.07-.12s0-.09-.05-.1a1.86,1.86,0,0,0-.32-.08.17.17,0,0,0-.14,0,.09.09,0,0,0,0,.06.26.26,0,0,0,.12.15"/><path d="M18.68,8.41c-.05,0-.08.1-.11.15l-.06.17s0,.1,0,.14.05.05.1.07a.07.07,0,0,0,.11,0l.06-.13a.76.76,0,0,0,.06-.16s0-.13,0-.16a.15.15,0,0,0-.15-.05"/><path d="M12.6,7.89a.62.62,0,0,0,0,.19s.13.06.14.05A1,1,0,0,0,12.81,8a.37.37,0,0,1,0-.11.35.35,0,0,1,.05-.08.09.09,0,0,0,0-.13.37.37,0,0,0-.12-.07s-.1.1-.13.15a.53.53,0,0,0,0,.18"/><path d="M14.15,7.13h0s.05,0,.06,0l0,0c.06,0,.13.07.17.06s.09-.12.07-.15A.38.38,0,0,0,14.36,7l-.15-.06c-.07,0-.15,0-.2,0s0,.12,0,.16a.38.38,0,0,0,.17,0"/><path d="M12.07,7.9s0,0,0-.06a.08.08,0,0,0,0-.12L12,7.64a.94.94,0,0,0-.24-.06.29.29,0,0,0-.16,0,.14.14,0,0,0,0,.14.23.23,0,0,0,.14.09.65.65,0,0,0,.21.06.26.26,0,0,0,.15,0"/><path d="M5.62,18.18a3,3,0,0,0,.17-.47s0,0-.07-.07a.11.11,0,0,0-.14,0s-.07.08-.06.1,0,.17-.07.25a.12.12,0,0,0,0,.14.22.22,0,0,0,.16,0"/><path d="M4.44,18.5a.86.86,0,0,0,0-.17.51.51,0,0,1,0-.09l-.09,0a.19.19,0,0,1-.21-.08.17.17,0,0,0-.15,0s-.06.11-.06.11a4.23,4.23,0,0,0,.42.22.31.31,0,0,0,.13,0"/><path d="M9.93,18.31a.18.18,0,0,0-.09,0,.3.3,0,0,0-.15.13.84.84,0,0,0-.07.19c0,.05,0,.12,0,.16a.17.17,0,0,0,.14.07c.05,0,.07-.1.1-.16s0-.1.05-.15l.05-.07a.1.1,0,0,0,0-.13"/><path d="M18.76,12.93a.29.29,0,0,0,.14-.13.53.53,0,0,0,.08-.22.24.24,0,0,0,0-.15l-.09,0a.14.14,0,0,0-.12.07s0,0,0,.06a.16.16,0,0,0,0,.1s0,0,0,0l0,0a.27.27,0,0,0-.05.16.16.16,0,0,0,.13.08"/><path d="M18.57,13.61c.05,0,.1,0,.1-.1s-.05-.18-.21-.16a.11.11,0,0,1-.1,0c-.08-.09-.15-.1-.23,0a.1.1,0,0,0,0,.17l.06,0h.08s.07,0,.08,0a.19.19,0,0,0,.23.1"/><path d="M16.41,13.39a.16.16,0,0,0-.15,0,.09.09,0,0,0,0,.05.35.35,0,0,0,.15.17.34.34,0,0,0,.2.06.21.21,0,0,0,.11,0,.1.1,0,0,0,.08-.11s0-.07,0-.08a1.74,1.74,0,0,0-.32-.1"/><path d="M18.11,8.23a.09.09,0,0,0-.1-.08c-.07,0-.15,0-.21-.07s-.1,0-.14,0-.07.09-.05.12a.22.22,0,0,0,.13.12s.12,0,.15,0,.14.15.22,0a.29.29,0,0,0,0-.16"/><path d="M16.3,8.23a.81.81,0,0,0,.25.08.26.26,0,0,0,.18-.06.18.18,0,0,0-.05-.17L16.35,8a.17.17,0,0,0-.14,0,.13.13,0,0,0,0,.07c0,.06.07.12.12.15"/><path d="M17.78,13.15a.18.18,0,0,0,0,.16.15.15,0,0,0,.15.06s.07-.08.09-.14a.63.63,0,0,0,.05-.37s-.09-.06-.11,0a.3.3,0,0,0-.08.08s-.05.09,0,.1,0,0,0,.09a.16.16,0,0,0,0,.07"/><path d="M17.33,12.81h.14s0,0,0,.07,0,.1,0,.11l0,0a.44.44,0,0,0,0,.2s.11.07.12.06a.64.64,0,0,0,.1-.18s0-.09,0-.11.14-.18,0-.24-.09,0-.15,0l-.09,0,0-.09a1.42,1.42,0,0,0,.05-.22.34.34,0,0,0,0-.17s-.12-.07-.14-.05a.34.34,0,0,0-.1.16s0,.09,0,.13a1.24,1.24,0,0,1,0,.16.07.07,0,0,0,.07.08"/><path d="M14.07,8.23s.08,0,.1-.05a.54.54,0,0,0,.07-.13,1,1,0,0,0,.06-.16s.06-.12,0-.14a.27.27,0,0,0-.16-.08c-.2,0-.09.23-.15.33s-.06.09,0,.13l0,.07.05,0"/><path d="M17.91,8.49a.61.61,0,0,1-.18-.05c-.06,0-.13,0-.16,0a.17.17,0,0,0-.06.15.31.31,0,0,0,.15.1s.12,0,.13,0a.14.14,0,0,0,.22.06.14.14,0,0,0,.07-.13.16.16,0,0,0-.17-.13"/><path d="M17.28,13.37s0-.06-.06-.09l-.09,0c-.12,0-.19,0-.28-.07a.1.1,0,0,0-.09,0,.11.11,0,0,0-.07.12s0,.07,0,.08a1.11,1.11,0,0,0,.36.13.19.19,0,0,0,.1,0,.27.27,0,0,0,.09-.1"/><path d="M15.7,13.06a.19.19,0,0,0,.16,0,.3.3,0,0,0,0-.19,2.62,2.62,0,0,0-.33-.09.19.19,0,0,0-.15,0s0,.05,0,.06.11.16.14.16.15,0,.22.06"/><path d="M12.67,8.25s-.12,0-.17,0-.07.1-.05.13a.28.28,0,0,0,.15.11s.1,0,.12,0,.16.15.24,0a.21.21,0,0,0,0-.14s0-.1,0-.1l-.09,0a.15.15,0,0,1-.19-.05"/><path d="M17,12.86s-.08,0-.12,0a.12.12,0,0,0-.09.11s0,.09,0,.1a2.22,2.22,0,0,0,.33.09.17.17,0,0,0,.14,0s0,0,0-.07-.14-.15-.16-.14-.12,0-.17-.05"/><path d="M16.76,7.59s0,.08.06.08a.36.36,0,0,1,.3.1s.08,0,.15,0a.07.07,0,0,0,0-.11c0-.05-.08-.1-.1-.09s-.19,0-.28-.09-.06,0-.11,0a.11.11,0,0,0,0,.13"/><path d="M18.51,7.82s.07.07.09.06a.22.22,0,0,1,.26.09S19,8,19,8s0-.15,0-.16a3,3,0,0,0-.45-.19s0,0-.07.08a.1.1,0,0,0,0,.14"/><path d="M4.48,18.75a.23.23,0,0,0,0,.16s.12.08.15.06a.38.38,0,0,0,.11-.16.58.58,0,0,0,0-.14c0-.07.06-.14,0-.19s-.12-.08-.15-.06,0,0-.07.08,0,.08,0,.1,0,0,0,.08a.18.18,0,0,0,0,.07"/><path d="M14,7.49a.13.13,0,0,1,.18.06s.11,0,.15,0a.17.17,0,0,0,.06-.06.11.11,0,0,0,0-.14s-.08-.07-.1-.06-.15,0-.22-.07a.41.41,0,0,0-.19,0,.17.17,0,0,0,0,.12s.12.13.16.12"/><path d="M10.29,18.44a.23.23,0,0,0-.17-.07.11.11,0,0,0-.06.07s0,.09,0,.1,0,0,0,.08a.16.16,0,0,0,0,.07.37.37,0,0,0,0,.18s.12.07.13.05a.52.52,0,0,0,.12-.17c0-.05,0-.1,0-.16s0-.13,0-.15"/><path d="M13.06,7.9a1.84,1.84,0,0,0,.28.09.19.19,0,0,1,.11.06s.05,0,.08-.05,0-.06,0-.08a.41.41,0,0,0-.16-.16.31.31,0,0,0-.18-.07.29.29,0,0,0-.13,0,.09.09,0,0,0-.08.1s0,.09.05.1"/><path d="M17.37,8.34l-.09,0c-.05,0-.11.07-.14.12a.86.86,0,0,0-.06.23c0,.05,0,.14,0,.16s.15,0,.16,0a2.16,2.16,0,0,0,.15-.34.12.12,0,0,0,0-.14"/><path d="M3.5,18.18s0-.07,0-.11S3.38,18,3.36,18s-.17,0-.24-.07a.19.19,0,0,0-.16,0,.18.18,0,0,0,0,.16,2.14,2.14,0,0,0,.42.16s.08,0,.13-.06"/><path d="M5.78,18.24a.17.17,0,0,0,.06.06s.09,0,.1,0,0,0,.09,0a.18.18,0,0,0,.07,0,.37.37,0,0,0,.18,0s.06-.11,0-.14a.49.49,0,0,0-.16-.1L6,18.11a.41.41,0,0,0-.19,0,.16.16,0,0,0,0,.15"/><path d="M5.84,18.39a1.07,1.07,0,0,0-.27-.08.24.24,0,0,1-.12-.07s-.06,0-.08,0a.38.38,0,0,0,0,.13.23.23,0,0,0,.11.14.23.23,0,0,1,.25.07s.14,0,.18-.05,0-.15,0-.16"/><path d="M7.61,18.66a.38.38,0,0,0-.1-.09s-.07,0-.09.05l0,.09a1.38,1.38,0,0,0-.08.27c0,.05,0,.15.05.17s.17,0,.17,0a.86.86,0,0,1,.13-.38s0,0,0-.07"/><path d="M15.3,7.4a.19.19,0,0,0,0,.14,1.74,1.74,0,0,0,.38.14.17.17,0,0,0,.11-.06.09.09,0,0,0,0-.13s-.06-.08-.08-.07a.43.43,0,0,1-.29-.1s-.12,0-.17.08"/><path d="M19.43,12.91s-.08,0-.11,0-.07.1-.06.13,0,.13-.06.2,0,.08,0,.13a.12.12,0,0,0,.12.07l.08,0a1.68,1.68,0,0,1,.12-.38s0-.07-.1-.13"/><path d="M4.4,18.24h.09a.17.17,0,0,1,.21.09.23.23,0,0,0,.14,0,.2.2,0,0,0,.06-.16s-.07-.07-.11-.08a1.11,1.11,0,0,0-.17,0l-.15,0s-.08,0-.08.08v.13"/><path d="M7.64,18.08c0,.05.1.08.16.11l.16,0,.07,0a.1.1,0,0,0,.12,0s0-.06,0-.09-.07-.1-.13-.13a1.17,1.17,0,0,0-.2-.06c-.05,0-.13-.05-.16,0s-.08.12-.06.15"/><path d="M2.83,17.44s-.09,0-.11.07,0,.08,0,.11,0,0,0,0,0,.06-.06.09a0,0,0,0,0,0,0c-.05,0-.05.07,0,.11s0,0,.05.05a.06.06,0,0,0,.11,0l.07-.13a.75.75,0,0,0,.06-.13.37.37,0,0,0,0-.18s0,0-.08,0"/><path d="M3.34,18.35s-.15,0-.16,0a2.14,2.14,0,0,0-.16.42s0,.06.09.11a.06.06,0,0,0,.1,0,2.6,2.6,0,0,0,.16-.35.16.16,0,0,0,0-.15"/><path d="M8.45,18.91a.48.48,0,0,0-.16-.08.33.33,0,0,0-.17,0s0,.14,0,.16a.61.61,0,0,0,.14.07s.09,0,.1,0,0,0,0,0h0a.64.64,0,0,0,.19.08s.08-.12.07-.13a1.22,1.22,0,0,0-.19-.12"/><path d="M3.16,17.76s.09,0,.1,0,0,0,0,0,0,.05.05.05a.2.2,0,0,0,.17,0,.24.24,0,0,0,.06-.15l-.39-.19a.11.11,0,0,0-.11,0,.18.18,0,0,0-.06.13l.14.07"/><path d="M16.44,7.87a.42.42,0,0,0,.11-.15,1,1,0,0,0,.06-.16s0-.11,0-.16a.3.3,0,0,0-.08-.07.07.07,0,0,0-.11,0,.49.49,0,0,0-.06.13.66.66,0,0,0-.05.15.42.42,0,0,0,0,.18s.11.08.15.06"/><path d="M17.74,7.74s-.06.14,0,.16a.28.28,0,0,0,.17.07s.08-.08.1-.14A1.06,1.06,0,0,0,18,7.64a.33.33,0,0,0,0-.17.15.15,0,0,0-.14,0s0,0-.07.06,0,.09,0,.1,0,.06,0,.09l-.05.06"/><path d="M16.29,12.69a.1.1,0,0,0-.13,0,.27.27,0,0,0-.08.07A.61.61,0,0,0,16,13a.35.35,0,0,0,0,.14.18.18,0,0,0,.09.1s.07,0,.1-.06a.16.16,0,0,0,0-.08.37.37,0,0,1,.08-.3s0,0,0-.09"/><path d="M9.44,18.47a1.12,1.12,0,0,0-.31-.1.19.19,0,0,0-.14.05s0,.14,0,.15a2.52,2.52,0,0,0,.33.13.14.14,0,0,0,.14,0,.1.1,0,0,0,0-.07.19.19,0,0,0-.07-.15"/><path d="M15.41,8.26l.07.05a.11.11,0,0,0,.13,0s.06-.07.05-.09,0-.16.07-.23a.2.2,0,0,0,0-.15.15.15,0,0,0-.12,0s-.11.09-.1.12a.22.22,0,0,1-.09.24.17.17,0,0,0,0,.14"/><path d="M3.67,19a.28.28,0,0,1,0,.09.31.31,0,0,1-.06.16l0,.05s0,.07,0,.07h.13a.12.12,0,0,0,.11-.09s0-.08,0-.12.08-.14.06-.19a.15.15,0,0,0-.16-.09.17.17,0,0,0-.08,0,.6.6,0,0,1,0,.08"/><path d="M15.44,14h0a.15.15,0,0,0,.13-.09.48.48,0,0,0,.08-.16.2.2,0,0,0,0-.11.11.11,0,0,0-.11-.08c-.06,0-.11,0-.12,0a1.65,1.65,0,0,0-.07.32.07.07,0,0,0,.07.09"/><path d="M13.91,8.91h.19c.05,0,.09,0,.1,0s0,0,.08,0a.07.07,0,0,0,0-.11.18.18,0,0,0-.07,0L14,8.67a.32.32,0,0,0-.17,0,.11.11,0,0,0,0,.12.2.2,0,0,0,.13.11"/><path d="M4.82,19.19l-.07,0s-.09,0-.1,0,0,0,0,0l-.05,0s-.1-.05-.14,0a.18.18,0,0,0-.06.14s0,.12.08.12a2.32,2.32,0,0,0,.37,0c.05,0,.09,0,.09,0s0-.06-.08-.07"/><path d="M16.93,13.62s-.07.09-.08.14a.47.47,0,0,0,0,.18c0,.05,0,.07.07,0a1,1,0,0,0,.2-.15.21.21,0,0,0,0-.17.21.21,0,0,0-.19,0"/><path d="M13.46,8.93a.74.74,0,0,0,.19-.15.15.15,0,0,0,0-.16.16.16,0,0,0-.15-.06s-.08.08-.1.13a1,1,0,0,0,0,.2s0,.07.06,0"/><path d="M15.63,8.85a3,3,0,0,0-.32-.12s0,0-.06,0a.11.11,0,0,0,0,.12s0,0,.06,0h.32c.05,0,.09,0,.09,0s0,0-.08-.06"/><path d="M19.8,7.54s.08,0,.13-.08a.07.07,0,0,0,0-.11c-.06,0-.1-.1-.13-.09a.28.28,0,0,0-.1.09.09.09,0,0,0,0,.13s.06.06.09.06"/><path d="M16.08,8.65s-.06,0-.09.06a.09.09,0,0,0,0,.13.19.19,0,0,0,.1.08s.07,0,.12-.09a.08.08,0,0,0,0-.12c-.05,0-.08-.07-.11-.06"/><path d="M17,7.3s.06,0,.06-.07A.48.48,0,0,0,17,7.07a.07.07,0,0,0-.11,0c0,.06-.09.09-.08.12a.34.34,0,0,0,.07.11.12.12,0,0,0,.14,0"/><path d="M7.82,18.71c-.05,0-.07.12-.08.18s0,0,0,.05a.14.14,0,0,0,.11,0s.06,0,.08,0a.27.27,0,0,0,0-.19.19.19,0,0,0-.17-.06"/><path d="M18.48,12.85a.29.29,0,0,0,.08-.14.23.23,0,0,0-.14-.15s-.14.09-.14.13,0,.09.09.16a.07.07,0,0,0,.11,0"/><path d="M6.15,17.65s.09-.08.08-.11a.21.21,0,0,0-.08-.11.08.08,0,0,0-.12,0s-.07.06-.07.09a.24.24,0,0,0,.07.13.08.08,0,0,0,.12,0"/><path d="M16.54,8.4a.08.08,0,0,0-.12,0c0,.05-.07.09-.06.12a.28.28,0,0,0,.07.09.12.12,0,0,0,.14,0s.07-.06.06-.09,0-.08-.09-.12"/><path d="M16.71,12.64c.05-.06.09-.1.09-.14a.22.22,0,0,0-.15-.13s-.13.09-.13.14,0,.07.08.13a.07.07,0,0,0,.11,0"/><path d="M12.83,8.65a.08.08,0,0,0-.12,0c0,.05-.07.09-.06.13s0,.06.07.09a.1.1,0,0,0,.13,0s.07-.07.07-.1,0-.07-.09-.12"/><path d="M8.32,18.46c-.06,0-.14.09-.14.14s.09.13.14.13.07,0,.12-.08a.08.08,0,0,0,0-.12s-.08-.08-.11-.07"/><path d="M17.29,13.69c-.05.05-.08.09-.08.12a.21.21,0,0,0,.08.11.09.09,0,0,0,.13,0s0,0,0-.08,0-.09-.08-.16a.06.06,0,0,0-.1,0"/><path d="M15.93,13.46a.18.18,0,0,0,.09.07s.07,0,.12-.08a.08.08,0,0,0,0-.12c0-.05-.08-.09-.1-.08a.23.23,0,0,0-.12.08.09.09,0,0,0,0,.13"/><path d="M10.31,18.81c-.05.05-.1.09-.08.12a.19.19,0,0,0,.08.1.12.12,0,0,0,.14,0,.15.15,0,0,0,.06-.1s0-.07-.07-.12a.09.09,0,0,0-.13,0"/><path d="M19.75,13.28s.08,0,.13-.08a.07.07,0,0,0,0-.11.39.39,0,0,0-.15-.1s-.12.1-.12.16.09.13.14.13"/><path d="M14.55,8a.2.2,0,0,0,.14-.13s0-.08-.09-.13a.08.08,0,0,0-.12,0s-.08.09-.08.13a.2.2,0,0,0,.15.12"/><path d="M12.1,8.24a.29.29,0,0,0,.15.14s.06,0,.11-.08a.07.07,0,0,0,0-.11.53.53,0,0,0-.14-.08s-.13.1-.12.13"/><path d="M15.92,8.13a.07.07,0,0,0,.11,0c0-.06.08-.1.08-.14s-.11-.1-.17-.11-.12.09-.11.13a.31.31,0,0,0,.09.13"/><path d="M11.7,8.93c.05,0,.14-.1.13-.15s-.05-.08-.1-.14a.07.07,0,0,0-.11,0c0,.06-.08.1-.07.14a.26.26,0,0,0,.15.14"/><path d="M18.32,8.61a.85.85,0,0,0-.22.09h0l.07.06.14.1a.32.32,0,0,0,.1-.12c0-.05-.06-.15-.08-.14"/><path d="M16.6,7.24s.08,0,.13-.07a.06.06,0,0,0,0-.11A.25.25,0,0,0,16.6,7s-.06,0-.09.07a.11.11,0,0,0,0,.13s.06.07.09.07"/><path d="M15.3,8.52c0,.06.08.15.13.15s.08,0,.13-.08a.07.07,0,0,0,0-.12.3.3,0,0,0-.14-.07s-.13.09-.12.12"/><path d="M11.8,7.5s.07,0,.12-.09a.08.08,0,0,0,0-.12s-.08-.08-.1-.07l-.11.08a.1.1,0,0,0,0,.13.26.26,0,0,0,.1.07"/><path d="M18.45,7.41a.2.2,0,0,0,0-.18.15.15,0,0,0-.05-.07.09.09,0,0,0-.12,0,.21.21,0,0,0-.06.08.26.26,0,0,0,.05.17.19.19,0,0,0,.15,0"/><path d="M15.56,12.61a.08.08,0,0,0,.1-.06.62.62,0,0,0,0-.13s0,0,0-.05l0,0h-.06s-.05,0-.06,0-.07.15,0,.19.06,0,.1,0"/><path d="M14.57,7.64a.1.1,0,0,0,.13,0,.17.17,0,0,0,.07-.1s0-.06-.07-.11a.07.07,0,0,0-.11,0c-.05.05-.09.09-.08.12s0,.06.06.09"/><path d="M9.35,18.84a.12.12,0,0,0-.14,0,.15.15,0,0,0-.05.08.39.39,0,0,0,.06.14.07.07,0,0,0,.11,0c.05-.06.09-.1.09-.14s0-.06-.07-.09"/><path d="M11.56,7.16a.13.13,0,0,0-.14,0c-.12.07-.13.12-.06.23a.11.11,0,0,0,.14,0c.12-.07.13-.13.06-.23"/><path d="M16.13,7.75a.28.28,0,0,0,.07-.09s0-.08-.07-.14-.07,0-.11,0-.1.09-.09.13a.15.15,0,0,0,.06.1.12.12,0,0,0,.14,0"/><path d="M18.32,13.17s.08,0,.14-.08a.06.06,0,0,0,0-.1c-.06-.05-.1-.08-.15-.08s-.13.09-.12.12.08.14.13.14"/><path d="M13.76,8.13s.08,0,.15-.08a.07.07,0,0,0,0-.11c-.07,0-.11-.07-.15-.07s-.13.09-.12.13.08.13.13.13"/><path d="M19.2,13.56s-.13.06-.12.09a.38.38,0,0,0,.06.13c0,.05.06.08.08.08a.19.19,0,0,0,.07-.08.48.48,0,0,0,.05-.14s-.09-.08-.14-.08"/><path d="M18.42,13.7a.18.18,0,0,0-.08.07.11.11,0,0,0,0,.14s.06.06.08.06a.35.35,0,0,0,.13-.1.07.07,0,0,0,0-.11c-.05,0-.09-.07-.12-.06"/><path d="M15.36,12.37c-.06,0-.09-.09-.14-.1s-.05,0-.08.06a.1.1,0,0,0,0,.13.28.28,0,0,0,.1.09s.06,0,.12-.07a.07.07,0,0,0,0-.11"/><path d="M18.8,8.33c.05,0,.09,0,.15-.09a.07.07,0,0,0,0-.11c-.05,0-.09-.08-.12-.07a.25.25,0,0,0-.1.08.11.11,0,0,0,0,.14s.05.06.07.05"/><path d="M4.59,17.89s.06,0,.12-.06a.07.07,0,0,0,0-.11s-.09-.09-.13-.09,0,0-.08.05a.09.09,0,0,0,0,.13.39.39,0,0,0,.1.08"/><path d="M17.26,8.08a.21.21,0,0,0,.08.11.1.1,0,0,0,.13,0,.26.26,0,0,0,.07-.11s0-.07-.09-.11a.07.07,0,0,0-.12,0s-.08.09-.07.11"/><path d="M3.72,18.34a.17.17,0,0,0,.11,0s.07-.07,0-.09a.27.27,0,0,0-.09-.1.18.18,0,0,0-.11-.05.1.1,0,0,0-.07.06.09.09,0,0,0,0,.13.19.19,0,0,0,.1.08"/><path d="M18.87,13.5a.25.25,0,0,0-.12,0s0,0-.05,0a.05.05,0,0,0,0,.08.05.05,0,0,0,.05,0h.12a.1.1,0,0,0,.09-.1.1.1,0,0,0-.1-.07"/><path d="M13.8,8.33s0-.07-.08-.1a.07.07,0,0,0-.11,0l0,0a.09.09,0,0,0,0,.13.19.19,0,0,0,.1.05s.12-.08.12-.13"/><path d="M17,12.74a.07.07,0,0,0,.11,0c0-.06.07-.1.06-.14s-.1-.1-.17-.11-.11.1-.1.14.05.08.1.13"/><path d="M17.48,7.88a.22.22,0,0,0,.15-.13.24.24,0,0,0-.08-.13.07.07,0,0,0-.11,0c-.05,0-.09.09-.09.13s.09.14.13.13"/><path d="M13.26,7.58c.05,0,.09-.09.09-.13s-.09-.12-.15-.12-.12.07-.12.12,0,.07.07.13a.07.07,0,0,0,.11,0"/><path d="M15.24,7.13c0-.06.08-.1.07-.14a.1.1,0,0,0-.06-.07.09.09,0,0,0-.13,0,.28.28,0,0,0-.07.09s0,.06.08.11a.07.07,0,0,0,.11,0"/><path d="M12.87,7.48A.2.2,0,0,0,13,7.34s0-.06-.07-.11a.07.07,0,0,0-.12,0s-.08.08-.08.12.09.13.13.13"/><path d="M19.69,8.69s-.06,0-.09.06a.09.09,0,0,0,0,.13.14.14,0,0,0,.08,0,.36.36,0,0,0,.13,0,.06.06,0,0,0,0-.1c-.06,0-.1-.09-.14-.09"/><path d="M5.07,18.42a.08.08,0,0,0,.12,0,.24.24,0,0,0,.06-.11.32.32,0,0,0-.08-.09.1.1,0,0,0-.13,0s0,.06,0,.09,0,.06.08.1"/><path d="M15.08,8.3a.18.18,0,0,0-.08.07.11.11,0,0,0,0,.14l.1.06s.06,0,.1-.08a.09.09,0,0,0,0-.13s-.08-.07-.11-.06"/><path d="M18.28,7.8a.35.35,0,0,0,.12-.08.09.09,0,0,0,0-.13c-.05,0-.09-.08-.1-.07a.28.28,0,0,0-.14.16s.09.12.13.12"/><path d="M15.81,13.3c0-.05-.05-.08-.09-.13a.08.08,0,0,0-.12,0c0,.05-.07.08-.06.11a.2.2,0,0,0,.13.14.21.21,0,0,0,.14-.12"/><path d="M12.46,7.83c-.05,0-.09-.08-.11-.07a.23.23,0,0,0-.14.15s.08.12.13.12.07,0,.12-.08a.07.07,0,0,0,0-.12"/><path d="M14.92,8.66c0,.05-.07.09-.06.12s0,.06.07.09a.11.11,0,0,0,.14,0s0,0,0-.08A.31.31,0,0,0,15,8.65a.07.07,0,0,0-.11,0"/><path d="M19,12.3s.07,0,.13-.07a.07.07,0,0,0,0-.11S19,12,19,12s-.06,0-.1.05a.12.12,0,0,0,0,.14s.05.07.09.07"/><path d="M15.51,7.25a.31.31,0,0,0,.13-.09.07.07,0,0,0,0-.12c-.05,0-.08-.07-.11-.07a.24.24,0,0,0-.14.14s.08.14.12.14"/><path d="M16.79,8.52a.26.26,0,0,0-.07.14s.1.11.15.1A.18.18,0,0,0,17,8.64a.35.35,0,0,0-.1-.13.07.07,0,0,0-.11,0"/><path d="M6,17.94H6a.07.07,0,0,0,.06-.1.25.25,0,0,0,0-.07A.11.11,0,0,0,6,17.69s-.07,0-.07.1a.2.2,0,0,1,0,.07.08.08,0,0,0,.09.08"/><path d="M17.54,12.2a.24.24,0,0,0,.12-.09.07.07,0,0,0,0-.11s-.08-.07-.11-.07a.22.22,0,0,0-.13.15s.09.13.13.12"/><path d="M8.84,18.19A.19.19,0,0,0,9,18.12a.9.9,0,0,0-.08-.21h0L8.81,18a.26.26,0,0,0-.09.09s.07.11.12.14"/><path d="M7.86,19.05a.19.19,0,0,0-.16,0c-.07,0-.08.11-.06.2a.07.07,0,0,0,.1.05l.14-.07a.06.06,0,0,0,0-.11l0,0"/><path d="M4.13,19A.22.22,0,0,0,4,19.1a.27.27,0,0,0,0,.12s.06.07.09.05l.11-.1a.15.15,0,0,0,0-.08c0-.06-.1-.14-.14-.13"/><path d="M7.6,17.7s.05,0,.05-.06a.29.29,0,0,0-.07-.15.06.06,0,0,0-.1,0c-.05.05-.08.09-.08.11a.23.23,0,0,0,.07.1.1.1,0,0,0,.13,0"/><path d="M6.83,18.61a.07.07,0,0,0,.12,0c0-.05.08-.09.08-.12a.2.2,0,0,0-.15-.12s-.12.08-.13.14,0,.06.08.1"/><path d="M8.06,18.41l0,0a.08.08,0,0,0-.12,0c0,.05-.07.09-.06.12s.1.13.13.11a.23.23,0,0,0,.1-.07.09.09,0,0,0,0-.13"/><path d="M17.44,13.36a.2.2,0,0,0-.14.14s0,.06.08.1a.08.08,0,0,0,.12,0,.19.19,0,0,0,.07-.12s-.09-.11-.13-.11"/><path d="M19.7,7.88a.2.2,0,0,0,.11-.07.07.07,0,0,0,0-.12s-.08-.08-.11-.07a.23.23,0,0,0-.13.14s.08.12.13.12"/><path d="M19.31,12.38c.05,0,.12-.08.14-.14s0-.05-.07-.09a.09.09,0,0,0-.13,0s-.08.08-.08.1.09.14.14.14"/><path d="M7.43,18.08A.41.41,0,0,0,7.54,18a.07.07,0,0,0,0-.12s-.07-.08-.1-.08a.15.15,0,0,0-.08.05.09.09,0,0,0,0,.13.3.3,0,0,0,.08.08"/><path d="M5.63,19.12a.09.09,0,0,0-.13,0l0,.05s-.06.09,0,.11a.08.08,0,0,0,.11,0l.1-.05a.07.07,0,0,0,0-.11h0"/><path d="M4.3,18.63a.06.06,0,0,0-.11,0,.2.2,0,0,0-.07.11s0,.06,0,.09a.1.1,0,0,0,.13,0,.15.15,0,0,0,.08-.08.2.2,0,0,0-.07-.11"/><path d="M19,8.29s0,.07.08.12a.07.07,0,0,0,.11,0,.46.46,0,0,0,.07-.14s-.1-.11-.12-.11-.13.09-.14.14"/><path d="M9.63,18.91,9.55,19a.09.09,0,0,0,0,.13s0,.06.08.06.07,0,.11-.07a.07.07,0,0,0,0-.11c-.05,0-.08-.07-.12-.07"/><path d="M6.6,18.52s.07-.08.06-.1a.29.29,0,0,0-.13-.14s-.12.07-.12.1a.38.38,0,0,0,.08.13.07.07,0,0,0,.11,0"/><path d="M6.76,19.13a.22.22,0,0,0-.13-.06.09.09,0,0,0-.07,0,.09.09,0,0,0,0,.12s0,0,.06,0,.08,0,.14-.05,0-.06,0-.09"/><path d="M17.58,8.8a.31.31,0,0,0-.12-.05s0,0-.06.06,0,.08,0,.09l.09,0a.11.11,0,0,0,.11,0s0-.07-.06-.1"/><path d="M17.78,13.85a.31.31,0,0,0-.13-.06s0,.05-.08.1,0,.08.05.08h.12c.05,0,.1,0,.1,0s0-.06-.06-.08"/><path d="M18.79,13.79a.23.23,0,0,0-.12.06s-.06.07-.05.09.06,0,.1,0h.15c.05,0,.07,0,0-.07s-.09-.11-.12-.11"/><path d="M16.41,8.75a.18.18,0,0,0-.09,0s-.07.08-.06.09,0,0,.11,0h.08a.21.21,0,0,0,.11,0,.14.14,0,0,0-.06-.09.14.14,0,0,0-.09-.05"/><path d="M13.15,8.75a.15.15,0,0,0-.11,0s-.08.06-.07.09,0,0,.11,0h.08l.11,0a.23.23,0,0,0,0-.1s0-.06-.07-.06"/><path d="M16.54,13.79s-.06.05-.11.11,0,.07,0,.07h.13c.05,0,.1,0,.11,0s0,0-.05-.09-.07-.06-.11-.06"/><path d="M19.92,13.86l-.14,0s0,0,0,0,0,.07.05.09l.09,0c.05,0,.1,0,.11,0s0-.07-.07-.09"/><path d="M8.82,19.05s0,0,0,0,0,.09,0,.1.08,0,.1,0,.07-.1,0-.14-.08,0-.12,0"/><path d="M2.1,8.5a.94.94,0,0,0,.28-.1.18.18,0,0,1,.16,0c.14.1.29.22.48.07s0-.31,0-.5a.1.1,0,0,1,0-.12C5,7,6.89,6.31,9.05,7c0,0,.07,0,0,0A.31.31,0,0,0,9,6.76a5.82,5.82,0,0,0-.6-.34c-.12-.06-.14-.12-.08-.22a.73.73,0,0,1,.64-.42h.18c.05,0,.1,0,.1,0s0,0-.08-.07a.56.56,0,0,0-.21-.06,1,1,0,0,0-1,.47c0,.08-.11.21-.18.21-.27,0-.54,0-.82,0a.08.08,0,0,1-.08-.09,1.89,1.89,0,0,1,.84-1.07s0-.06,0-.07a.4.4,0,0,0-.19,0A1.49,1.49,0,0,0,6.32,6.15c0,.07-.06.16-.11.18l-.9.23a.07.07,0,0,1-.09-.07,1.31,1.31,0,0,1,.56-1.1s0-.06,0-.06a.72.72,0,0,0-.33,0,1,1,0,0,0-.58.72,2.63,2.63,0,0,0-.06.48c0,.14-.07.18-.19.22s-.53.17-.79.28-.21,0-.22-.14a1,1,0,0,1,.23-.76l.34-.39s0-.06,0-.06a.93.93,0,0,0-.76.42,1.39,1.39,0,0,0-.19,1.09.21.21,0,0,1-.05.17.91.91,0,0,1-.37.18c-.07,0-.15-.14-.24-.17a.4.4,0,0,0-.32,0,.3.3,0,0,0-.15.25A.29.29,0,0,1,1.89,8a.24.24,0,0,0,0,.36.34.34,0,0,0,.26.1"/><path d="M16.9,18.23a.92.92,0,0,0-.33.29.45.45,0,0,1-.53.22l-.23,0c-.13,0-.15-.08-.11-.19a1.33,1.33,0,0,1,.47-.67l.08-.06s0-.08,0-.1a.63.63,0,0,0-.66.28,5.49,5.49,0,0,0-.31.59c0,.07-.09.16-.15.18a3.34,3.34,0,0,1-.43.05.11.11,0,0,1-.11-.09,1.27,1.27,0,0,1,.43-1.1s0-.06,0-.06a1.14,1.14,0,0,0-.26.09.92.92,0,0,0-.56.84c0,.41-.19.52-.52.55l0,0c-.2,0-.25,0-.27-.2a.89.89,0,0,1,.21-.78s0-.07,0-.07a.56.56,0,0,0-.49.32,1,1,0,0,0-.09.75.27.27,0,0,1-.06.25,1.16,1.16,0,0,1-.5.24c-.09,0-.21-.16-.32-.25h0a.27.27,0,0,0-.38,0,.25.25,0,0,0,0,.36l.06.06a.08.08,0,0,1,0,.12c-.27.31-.28.38-.14.53s.25.16.52,0a.13.13,0,0,1,.15,0c.12.14.22.33.47.16a.18.18,0,0,0,.08-.16c0-.12-.07-.23-.12-.38a.1.1,0,0,1,.05-.13,7.91,7.91,0,0,1,.77-.39,6.61,6.61,0,0,1,1.92-.33,2.25,2.25,0,0,1,1.74.52l.07,0s.06,0,.05-.07a1.35,1.35,0,0,0-.08-.24c-.09-.12-.21-.22-.31-.34s-.18-.33,0-.49a1.74,1.74,0,0,1,.38-.23.06.06,0,0,0,0-.1.35.35,0,0,0-.39,0"/><path d="M15.88,21.26a1.21,1.21,0,0,0-.32.11,2.69,2.69,0,0,0-.37.3c-.14.12-.48.14-.58,0s0-.31.08-.43A2.69,2.69,0,0,1,15,21a.58.58,0,0,1,.14-.08s0-.06,0-.07h-.09a.89.89,0,0,0-.83.63.39.39,0,0,1-.41.34.18.18,0,0,1-.24-.15.62.62,0,0,1,.12-.54c.05-.06.09-.14.15-.22s0-.07,0-.06a.88.88,0,0,0-.6,1,.34.34,0,0,1-.33.36c-.17,0-.22-.15-.22-.28a1.84,1.84,0,0,1,0-.4c0-.05,0-.08,0-.07l-.05,0a.59.59,0,0,0-.16.8.23.23,0,0,1-.07.34c-.14.1-.23.16-.37,0a.38.38,0,0,0-.33,0c-.14.08-.06.21,0,.31l.12.14a.08.08,0,0,1,0,.12l-.06.07c0,.1-.08.24,0,.3s.19.07.3.07.1-.07.14-.12.21-.18.34,0a.18.18,0,0,0,.08,0c.09,0,.22,0,.26,0a.28.28,0,0,0,0-.25A.77.77,0,0,0,12.6,23a.07.07,0,0,1,0-.12,2.87,2.87,0,0,1,1.32-.72,2,2,0,0,1,1.86.3s0,0,0,0,0-.05,0-.1a.54.54,0,0,0-.05-.11,1,1,0,0,0-.18-.17.23.23,0,0,1,0-.39l.35-.37a.27.27,0,0,0,.06-.09s0,0-.1,0"/><path d="M7.83,23.31l.12,0A.06.06,0,0,0,8,23.28a.17.17,0,0,1,0-.07.09.09,0,0,0-.08-.1H7.88a.19.19,0,0,1-.11,0s0-.06.05-.07a.1.1,0,0,0,.06,0c0-.05,0-.15,0-.16a.39.39,0,0,0-.18,0,2.68,2.68,0,0,0-.18.47l.15.07s.09,0,.14,0"/><path d="M8.87,23.64a.49.49,0,0,0,.18.08.35.35,0,0,0,.11,0l.12,0a.08.08,0,0,0,.11-.06.81.81,0,0,0,0-.11l.09-.15c.07-.09.05-.16-.07-.2a.25.25,0,0,0-.12,0l-.08,0a.16.16,0,0,0,0,.09c0,.06.05.12,0,.16s-.1,0-.11,0l0,0a.3.3,0,0,0-.18,0s-.08.13-.06.15"/><path d="M9.89,23.84c-.11.07-.06.13,0,.2a.28.28,0,0,1,0,.07l.09,0a.2.2,0,0,1,.2.07.16.16,0,0,0,.15,0,.31.31,0,0,0,.06-.16c0-.09-.43-.23-.52-.17"/><path d="M9.64,24a.41.41,0,0,0-.19,0s-.06.11,0,.13.12.12.16.1.13,0,.16.05a.11.11,0,0,0,.13.05c.13-.05.15-.08.1-.18l0-.08-.09,0L9.64,24"/><path d="M8.15,23.1a.15.15,0,0,1,.18.07s.12,0,.16,0a.2.2,0,0,0,0-.14.57.57,0,0,0-.16-.11s-.1,0-.11,0-.18-.13-.24,0S8,23,8,23a.09.09,0,0,0,.11.07"/><path d="M9.81,24.48l-.05-.07H9.68s-.09,0-.11,0a.15.15,0,0,0-.2-.05.18.18,0,0,0-.09.13c0,.21.34.05.39.22,0,0,.08,0,.11,0s.09-.08.08-.11a.54.54,0,0,0,0-.11"/><path d="M9.21,24.35l-.09-.05a.06.06,0,0,0-.1,0c0,.05,0,.09,0,.13s0,.06,0,.07-.11.17,0,.25a.09.09,0,0,0,.13,0c.05,0,.1-.08.09-.1s0-.18.1-.24a.07.07,0,0,0,0-.11"/><path d="M9.48,23.17s.08,0,.09,0,0,0,.09,0l.07,0a.28.28,0,0,0,.18,0s.08-.09.06-.11A.41.41,0,0,0,9.83,23L9.64,23a.45.45,0,0,0-.2,0,.18.18,0,0,0,0,.13l.08.09"/><path d="M7.66,23.52a.36.36,0,0,0-.14-.16,1,1,0,0,0-.18-.06s-.13-.05-.16,0a.21.21,0,0,0-.06.18s.1.05.16.07a.59.59,0,0,0,.14.06l.06,0a.1.1,0,0,0,.13,0s.06-.06,0-.08"/><path d="M10.15,24.26a.18.18,0,0,0-.08.07.11.11,0,0,0,0,.1s0,.05,0,.09a.16.16,0,0,0,0,.07.22.22,0,0,0,0,.16s.12.08.15.06a.42.42,0,0,0,.09-.16l0-.14c0-.06.05-.13,0-.18s-.11-.08-.15-.07"/><path d="M8.18,23.35a.49.49,0,0,1-.11.35s0,.05.06.1a.09.09,0,0,0,.13,0s.07-.06.07-.09a.56.56,0,0,1,.1-.28s0-.15-.08-.17-.17,0-.17.07"/><path d="M8.48,24a1.45,1.45,0,0,0-.33-.08A.17.17,0,0,0,8,24S8,24,8,24s.06.11.11.14a.68.68,0,0,0,.24.08h.11a.11.11,0,0,0,.07-.12s0-.09,0-.1"/><path d="M9,24a.38.38,0,0,0-.35-.21s-.06,0-.09,0a.1.1,0,0,0-.08.1s0,.09,0,.1a1.85,1.85,0,0,0,.31.11A.16.16,0,0,0,9,24S9,24,9,24"/><path d="M9.78,23.38s-.13,0-.16.06a1,1,0,0,0-.12.34s0,.08.07.13a.08.08,0,0,0,.12,0s.06,0,.07-.07a1.91,1.91,0,0,0,.1-.34.15.15,0,0,0-.08-.14"/><path d="M9.1,23.35l.05,0,.09,0s0,0,0-.08,0-.1,0-.12.11-.19,0-.27-.08,0-.11,0l-.1.18a.14.14,0,0,0,0,.09c0,.05,0,.11,0,.16s0,.08.08.07"/><path d="M7.05,22.87a.12.12,0,0,0-.14,0,.28.28,0,0,0-.07.09.24.24,0,0,0,.07.13.08.08,0,0,0,.12,0c0-.05.1-.09.09-.12s0-.07-.07-.11"/><path d="M10.06,23.74s.08,0,.13-.08a.07.07,0,0,0,0-.11c0-.05-.08-.08-.11-.08a.23.23,0,0,0-.15.12c0,.05.08.15.12.15"/><path d="M10,24.89a.3.3,0,0,0-.11.06.11.11,0,0,0,0,.13.28.28,0,0,0,.09.07s.08,0,.13-.06.05-.07,0-.11-.08-.09-.11-.09"/><path d="M8.76,23.29s.07,0,.12-.08a.08.08,0,0,0,0-.12c0-.05-.09-.09-.11-.07s-.07.05-.1.08a.09.09,0,0,0,0,.13s.07.06.1.06"/><path d="M8.68,23.65s.06,0,.1,0,.07-.07.05-.09-.05-.07-.09-.1a.19.19,0,0,0-.1-.05s-.12.1-.12.12a.41.41,0,0,0,.16.16"/><path d="M7.92,23.48a.07.07,0,0,0-.12,0s-.08.08-.08.1a.39.39,0,0,0,.08.1.11.11,0,0,0,.14,0s.07-.06.07-.1,0-.07-.09-.11"/><path d="M7.76,23.8s-.06,0-.11.08a.07.07,0,0,0,0,.12s.09.08.13.08.06,0,.09-.08a.11.11,0,0,0,0-.13.23.23,0,0,0-.1-.07"/><path d="M10.11,23.14s-.07.08-.06.11,0,.06.06.09a.12.12,0,0,0,.14,0s.06-.06.06-.08,0-.08-.08-.13a.08.08,0,0,0-.12,0"/><path d="M9.54,24.84s0,.12,0,.17,0,0,.06.06a.08.08,0,0,0,.11,0,.21.21,0,0,0,0-.07c0-.05,0-.14,0-.16s-.14,0-.17,0"/><path d="M7.34,23.19s.06,0,.11-.08a.07.07,0,0,0,0-.11.17.17,0,0,0-.12-.08s-.12.09-.12.13a.24.24,0,0,0,.14.14"/><path d="M9.19,23.94a.15.15,0,0,0-.1,0c-.07.09,0,.16.09.24s.09,0,.09-.05,0-.08,0-.11a.09.09,0,0,0-.09-.1"/><path d="M9,13.09c-.15-.25-.27-.26-.42,0s-.39.7-.58,1.06a.22.22,0,0,0,0,.09.12.12,0,0,0,0,.1s.06,0,.1,0,.18-.11.18-.16a1.67,1.67,0,0,1,.37-.86.16.16,0,0,1,.07-.07.08.08,0,0,1,.12,0,1.32,1.32,0,0,1,.15.24c.08.16.12.36.36.38a.15.15,0,0,1,.05.12s-.05.08-.09.09l-.37.07c-.14,0-.21.08-.2.23a3.65,3.65,0,0,1,0,.66c0,.26.15.39.3.56a.08.08,0,0,0,.12,0l.12-.16s0-.07,0-.07C9,15.35,9,15.2,9,15s0-.21,0-.32c0-.33.08-.39.39-.3a.91.91,0,0,0,.65,0,.24.24,0,0,1,.3,0,1.08,1.08,0,0,0,.8.2h.25c.05,0,.08,0,.07,0s0,.07,0,.11.11.28.15.42,0,.23,0,.28c-.2.2-.44.37-.65.56a2.92,2.92,0,0,0-.28.32s0,.08,0,.1.07,0,.11,0a.83.83,0,0,0,.18-.13c.06,0,.09-.13.15-.17l.82-.48a.29.29,0,0,0,.16-.31.47.47,0,0,1,0-.16.06.06,0,0,1,.1,0,1.53,1.53,0,0,0,.33.23c.19.06.22.18.13.32s-.34.44-.5.66-.15.24-.22.36a.11.11,0,0,0,0,.1H12l.15,0a.11.11,0,0,0,.08-.11c0-.17.1-.26.25-.33a.65.65,0,0,0,.24-.15c.11-.13.19-.27.29-.41s.16-.25,0-.42-.23-.45,0-.77a1.1,1.1,0,0,0,.19-.48c0-.26.1-.31.36-.24a.92.92,0,0,0,.29,0s.09,0,.09,0,0,0-.07-.08l-.06,0a.12.12,0,0,1,0-.14l.12-.19s0-.06,0,0-.19.09-.24,0a.1.1,0,0,1,0-.13l.18-.11a0,0,0,0,0,0-.09L13.55,13a.07.07,0,0,1,0-.11c.09-.12.19-.21.15-.36s-.05-.05-.07,0a.21.21,0,0,1,0,.07l-.1.07c-.05,0-.09,0-.1-.05a.29.29,0,0,1,0-.13,3.62,3.62,0,0,1,.22-.32l.08-.15s0-.06,0,0c-.29.14-.54.26-.58.59,0,.05,0,.09,0,.08a.21.21,0,0,1-.07-.1.25.25,0,0,1,0-.07s-.07-.06-.1,0,0,.26.06.38.22.32.32.49a.36.36,0,0,1,0,.45.08.08,0,0,1-.12,0A1.22,1.22,0,0,0,12,13.48a4.17,4.17,0,0,1-.5,0,.36.36,0,0,1-.35-.28.45.45,0,0,1,.14-.5c.15-.12.29,0,.42,0h0s0-.05,0-.1-.07-.19-.11-.3,0-.07.06-.05l.18.08a.17.17,0,0,0,.11,0s0,0,0-.1a2.55,2.55,0,0,1-.14-.24s0-.07,0-.06h.1c.05,0,.07,0,0-.06s-.15-.15-.22-.23a1.59,1.59,0,0,1-.13-.22.09.09,0,0,1,0-.12l.18-.1,0,0s0,0-.07-.05a.82.82,0,0,0-.49,0,.5.5,0,0,1-.24,0,.09.09,0,0,1-.06-.11,1.59,1.59,0,0,0,.07-.2v0s-.05,0-.1,0c-.34.19-.62.53-1.09.46,0,0-.06,0,0,0l0,.05a.08.08,0,0,1,0,.12L9.2,12a0,0,0,0,0,0,.09c.2.1.35.22.55.09,0,0,.08,0,.15,0a.06.06,0,0,1,0,.09l-.19.28-.39.54-.09.13a.09.09,0,0,1-.13,0A.51.51,0,0,1,9,13.09m1.68-1.66c.18,0,.29.14.34.4s0,.63-.11.72a.06.06,0,0,1-.09-.05,1.73,1.73,0,0,0-.18-1,.05.05,0,0,1,0-.09"/><path d="M8.15,10.54a.34.34,0,0,1-.17,0s0,0-.05,0v.06s0,0,0,0a.34.34,0,0,0,.2.06.29.29,0,0,0,.31-.31c0-.14-.07-.23-.23-.31s-.15-.09-.15-.17a.13.13,0,0,1,.14-.13.35.35,0,0,1,.13,0,0,0,0,0,0,.05,0l0-.06a.07.07,0,0,0,0-.06.47.47,0,0,0-.17,0,.28.28,0,0,0-.28.29.3.3,0,0,0,.23.3c.1.05.14.1.14.18a.14.14,0,0,1-.15.16"/><path d="M8.5,9.78h.21v.84a0,0,0,0,0,0,.05h.07a0,0,0,0,0,0-.05V9.78h.21a0,0,0,0,0,0,0V9.67a0,0,0,0,0,0,0H8.5a0,0,0,0,0,0,0v.07a0,0,0,0,0,0,0"/><path d="M9.48,10.68c.21,0,.33-.16.33-.45V9.67a0,0,0,0,0,0,0H9.7s0,0,0,0v.57c0,.14,0,.3-.19.3s-.17-.11-.17-.3V9.67a0,0,0,0,0,0,0H9.2a0,0,0,0,0,0,0v.57c0,.38.2.44.32.44"/><path d="M9.9,9.78h.22v.84s0,.05,0,.05h.07a0,0,0,0,0,0-.05V9.78h.21a0,0,0,0,0,0,0V9.67a0,0,0,0,0,0,0H9.9a0,0,0,0,0,0,0v.07a0,0,0,0,0,0,0"/><path d="M10.56,9.78h.21v.84a0,0,0,0,0,0,.05h.07s0,0,0-.05V9.78h.21a0,0,0,0,0,0,0V9.67a0,0,0,0,0,0,0h-.57a0,0,0,0,0,0,0v.07a0,0,0,0,0,0,0"/><path d="M11.26,10.54a.41.41,0,0,0,.32.13.82.82,0,0,0,.25,0,.09.09,0,0,0,0-.05v-.44a0,0,0,0,0,0,0h-.23a0,0,0,0,0,0,0v.07a0,0,0,0,0,0,0h.13v.27h-.12c-.18,0-.3-.14-.3-.38s.12-.39.31-.39a.27.27,0,0,1,.16,0s0,0,.05,0l0-.06a.05.05,0,0,0,0-.05.44.44,0,0,0-.19,0,.48.48,0,0,0-.47.54.64.64,0,0,0,.12.38"/><path d="M12,10.67H12a0,0,0,0,0,0,0l.08-.27h.27l.07.27a.07.07,0,0,0,0,0h.07l0,0v0l-.27-.95a0,0,0,0,0,0,0h-.09a0,0,0,0,0,0,0l-.27.95s0,0,0,0l0,0m.22-.45.07-.27a.45.45,0,0,0,0-.11l0,.11.07.27Z"/><path d="M12.77,10.67h.07a0,0,0,0,0,0-.05v-.39H13c.09,0,.12,0,.15.18s0,.19,0,.22a.07.07,0,0,0,0,0h.07l0,0v0s0-.14-.06-.25a.26.26,0,0,0-.1-.2.28.28,0,0,0,.14-.26.32.32,0,0,0-.07-.2A.32.32,0,0,0,13,9.62l-.19,0a0,0,0,0,0,0,0v1a0,0,0,0,0,0,0m.11-.57V9.77H13a.16.16,0,0,1,.18.17.16.16,0,0,1-.17.17Z"/><path d="M13.35,9.78h.21v.84a0,0,0,0,0,0,.05h.07a0,0,0,0,0,0-.05V9.78h.21a0,0,0,0,0,0,0V9.67a0,0,0,0,0,0,0h-.57a0,0,0,0,0,0,0v.07a0,0,0,0,0,0,0"/></svg>