<svg id="renault" data-name="Слой 1" xmlns="http://www.w3.org/2000/svg" viewBox="0 0 4.22 5"><title>renault</title><path d="M2.5,0,1.09,2.47,1,2.56,2,4.29l0,.07L.86,2.52,2.3,0H2.16L.72,2.52l-.08,0,1.24,2,0,.07L.56,2.56l0-.06L2,0H1.81L.4,2.47l-.08.09L1.73,4.83l-.05.07L.25,2.57l-.09,0L1.61,0H1.46L0,2.56,1.51,5h.27L3.12,2.63l.14-.08L2.19.81l0-.07L3.35,2.58,2,5h.15L3.5,2.58l.08,0L2.34.54l0-.07L3.66,2.55l0,.05L2.33,5h.15L3.82,2.63l.08-.08L2.49.27l0-.07L4,2.53l.08,0L2.67,5h.15l1.4-2.45L2.65,0ZM3,2.55,3,2.6,2.14,4.09,1.2,2.56l0-.06L2.07,1Z"/></svg>